DakdamRef-Regular.ufo
<glyph name="Iacute" format="2">
  <advance width="722"/>
  <unicode hex="00CD"/>
  <outline>
    <contour>
      <point x="251" y="229" type="line" smooth="yes"/>
      <point x="251" y="75"/>
      <point x="198" y="37"/>
      <point x="48" y="37" type="curve"/>
      <point x="48" y="0" type="line"/>
      <point x="674" y="0" type="line"/>
      <point x="674" y="37" type="line"/>
      <point x="528" y="37"/>
      <point x="472" y="75"/>
      <point x="472" y="229" type="curve" smooth="yes"/>
      <point x="472" y="1209" type="line" smooth="yes"/>
      <point x="472" y="1362"/>
      <point x="528" y="1400"/>
      <point x="674" y="1400" type="curve"/>
      <point x="674" y="1437" type="line"/>
      <point x="48" y="1437" type="line"/>
      <point x="48" y="1400" type="line"/>
      <point x="198" y="1400"/>
      <point x="251" y="1362"/>
      <point x="251" y="1209" type="curve" smooth="yes"/>
    </contour>
    <contour>
      <point x="636" y="1807" type="line"/>
      <point x="370" y="1807" type="line"/>
      <point x="183" y="1508" type="line"/>
      <point x="239" y="1508" type="line"/>
    </contour>
  </outline>
</glyph>
<glyph name="uni1782" format="2">
  <advance width="1476"/>
  <unicode hex="1782"/>
  <anchor x="1231" y="0" name="L"/>
  <anchor x="1231" y="1440" name="U"/>
  <anchor x="763" y="0" name="lm"/>
  <anchor x="763" y="1440" name="um"/>
  <outline>
    <contour>
      <point x="763" y="1030" type="curve" smooth="yes"/>
      <point x="567" y="1030"/>
      <point x="295" y="945"/>
      <point x="295" y="845" type="curve" smooth="yes"/>
      <point x="295" y="0" type="line"/>
      <point x="483" y="0" type="line"/>
      <point x="539" y="168"/>
      <point x="585" y="247"/>
      <point x="686" y="247" type="curve" smooth="yes"/>
      <point x="739" y="247"/>
      <point x="783" y="294"/>
      <point x="783" y="330" type="curve" smooth="yes"/>
      <point x="783" y="364"/>
      <point x="760" y="416"/>
      <point x="689" y="416" type="curve" smooth="yes"/>
      <point x="600" y="416"/>
      <point x="525" y="341"/>
      <point x="483" y="266" type="curve"/>
      <point x="483" y="827" type="line" smooth="yes"/>
      <point x="483" y="891"/>
      <point x="685" y="918"/>
      <point x="763" y="918" type="curve" smooth="yes"/>
      <point x="841" y="918"/>
      <point x="1043" y="891"/>
      <point x="1043" y="827" type="curve" smooth="yes"/>
      <point x="1043" y="0" type="line"/>
      <point x="1231" y="0" type="line"/>
      <point x="1231" y="845" type="line" smooth="yes"/>
      <point x="1231" y="945"/>
      <point x="959" y="1030"/>
    </contour>
    <contour>
      <point x="724" y="1114" type="curve" smooth="yes"/>
      <point x="761" y="1114"/>
      <point x="792" y="1148"/>
      <point x="811" y="1172" type="curve" smooth="yes"/>
      <point x="835" y="1201"/>
      <point x="864" y="1236"/>
      <point x="895" y="1236" type="curve" smooth="yes"/>
      <point x="964" y="1236"/>
      <point x="1137" y="1114"/>
      <point x="1222" y="1114" type="curve" smooth="yes"/>
      <point x="1303" y="1114"/>
      <point x="1332" y="1219"/>
      <point x="1363" y="1305" type="curve"/>
      <point x="1340" y="1295"/>
      <point x="1316" y="1293"/>
      <point x="1293" y="1293" type="curve" smooth="yes"/>
      <point x="1228" y="1293"/>
      <point x="1023" y="1440"/>
      <point x="951" y="1440" type="curve" smooth="yes"/>
      <point x="927" y="1440"/>
      <point x="890" y="1419"/>
      <point x="856" y="1387" type="curve" smooth="yes"/>
      <point x="829" y="1361"/>
      <point x="799" y="1331"/>
      <point x="771" y="1298" type="curve"/>
      <point x="692" y="1323"/>
      <point x="507" y="1440"/>
      <point x="443" y="1440" type="curve" smooth="yes"/>
      <point x="359" y="1440"/>
      <point x="166" y="1185"/>
      <point x="141" y="1081" type="curve" smooth="yes"/>
      <point x="140" y="1076"/>
      <point x="140" y="1055"/>
      <point x="140" y="1049" type="curve" smooth="yes"/>
      <point x="140" y="978"/>
      <point x="228" y="952"/>
      <point x="301" y="930" type="curve"/>
      <point x="462" y="1004" type="line"/>
      <point x="379" y="1020"/>
      <point x="300" y="1047"/>
      <point x="300" y="1104" type="curve" smooth="yes"/>
      <point x="300" y="1107" type="line" smooth="yes"/>
      <point x="300" y="1115"/>
      <point x="301" y="1136"/>
      <point x="311" y="1160" type="curve" smooth="yes"/>
      <point x="320" y="1182"/>
      <point x="351" y="1215"/>
      <point x="369" y="1227" type="curve" smooth="yes"/>
      <point x="377" y="1233"/>
      <point x="387" y="1236"/>
      <point x="397" y="1236" type="curve" smooth="yes"/>
      <point x="466" y="1236"/>
      <point x="639" y="1114"/>
    </contour>
  </outline>
</glyph>
<glyph name="uni178D" format="2">
  <advance width="2076"/>
  <unicode hex="178D"/>
  <anchor x="1831" y="0" name="L"/>
  <anchor x="1831" y="1440" name="U"/>
  <anchor x="1437" y="0" name="lm"/>
  <anchor x="1437" y="1440" name="um"/>
  <outline>
    <contour>
      <point x="295" y="1182" type="curve"/>
      <point x="295" y="78" type="line"/>
      <point x="320" y="15"/>
      <point x="401" y="0"/>
      <point x="466" y="0" type="curve"/>
      <point x="632" y="31"/>
      <point x="710" y="171"/>
      <point x="710" y="270" type="curve" smooth="yes"/>
      <point x="710" y="384"/>
      <point x="613" y="482"/>
      <point x="483" y="495" type="curve"/>
      <point x="483" y="1145" type="line" smooth="yes"/>
      <point x="483" y="1193"/>
      <point x="539" y="1272"/>
      <point x="564" y="1272" type="curve" smooth="yes"/>
      <point x="568" y="1272"/>
      <point x="604" y="1238"/>
      <point x="636" y="1204" type="curve" smooth="yes"/>
      <point x="673" y="1163"/>
      <point x="714" y="1121"/>
      <point x="763" y="1121" type="curve" smooth="yes"/>
      <point x="812" y="1121"/>
      <point x="853" y="1163"/>
      <point x="890" y="1204" type="curve" smooth="yes"/>
      <point x="922" y="1238"/>
      <point x="958" y="1272"/>
      <point x="962" y="1272" type="curve" smooth="yes"/>
      <point x="987" y="1272"/>
      <point x="1043" y="1193"/>
      <point x="1043" y="1145" type="curve" smooth="yes"/>
      <point x="1043" y="451" type="line"/>
      <point x="917" y="439"/>
      <point x="816" y="363"/>
      <point x="816" y="248" type="curve" smooth="yes"/>
      <point x="816" y="169"/>
      <point x="894" y="31"/>
      <point x="1060" y="0" type="curve"/>
      <point x="1125" y="0"/>
      <point x="1206" y="15"/>
      <point x="1231" y="78" type="curve"/>
      <point x="1231" y="315" type="line"/>
      <point x="1265" y="300"/>
      <point x="1310" y="243"/>
      <point x="1344" y="191" type="curve" smooth="yes"/>
      <point x="1404" y="100"/>
      <point x="1481" y="0"/>
      <point x="1617" y="0" type="curve" smooth="yes"/>
      <point x="1797" y="0"/>
      <point x="1831" y="86"/>
      <point x="1831" y="187" type="curve" smooth="yes"/>
      <point x="1831" y="950" type="line" smooth="yes"/>
      <point x="1831" y="1015"/>
      <point x="1692" y="1114"/>
      <point x="1572" y="1154" type="curve" smooth="yes"/>
      <point x="1570" y="1155"/>
      <point x="1569" y="1156"/>
      <point x="1569" y="1158" type="curve"/>
      <point x="1569" y="1160" type="line"/>
      <point x="1574" y="1183"/>
      <point x="1589" y="1215"/>
      <point x="1607" y="1227" type="curve" smooth="yes"/>
      <point x="1615" y="1233"/>
      <point x="1625" y="1236"/>
      <point x="1635" y="1236" type="curve" smooth="yes"/>
      <point x="1704" y="1236"/>
      <point x="1737" y="1165"/>
      <point x="1822" y="1165" type="curve" smooth="yes"/>
      <point x="1913" y="1165"/>
      <point x="1932" y="1260"/>
      <point x="1963" y="1346" type="curve"/>
      <point x="1940" y="1336"/>
      <point x="1916" y="1334"/>
      <point x="1893" y="1334" type="curve" smooth="yes"/>
      <point x="1838" y="1334"/>
      <point x="1753" y="1440"/>
      <point x="1681" y="1440" type="curve" smooth="yes"/>
      <point x="1597" y="1440"/>
      <point x="1494" y="1185"/>
      <point x="1469" y="1081" type="curve"/>
      <point x="1469" y="1079" type="line"/>
      <point x="1469" y="1075"/>
      <point x="1471" y="1070"/>
      <point x="1476" y="1069" type="curve" smooth="yes"/>
      <point x="1581" y="1057"/>
      <point x="1643" y="983"/>
      <point x="1643" y="939" type="curve" smooth="yes"/>
      <point x="1643" y="213" type="line" smooth="yes"/>
      <point x="1643" y="157"/>
      <point x="1628" y="136"/>
      <point x="1582" y="136" type="curve" smooth="yes"/>
      <point x="1540" y="136"/>
      <point x="1482" y="194"/>
      <point x="1435" y="270" type="curve" smooth="yes"/>
      <point x="1382" y="354"/>
      <point x="1328" y="419"/>
      <point x="1231" y="451" type="curve"/>
      <point x="1231" y="1182" type="line" smooth="yes"/>
      <point x="1231" y="1242"/>
      <point x="1085" y="1440"/>
      <point x="984" y="1440" type="curve" smooth="yes"/>
      <point x="931" y="1440"/>
      <point x="887" y="1396"/>
      <point x="846" y="1350" type="curve" smooth="yes"/>
      <point x="813" y="1313"/>
      <point x="774" y="1276"/>
      <point x="763" y="1276" type="curve" smooth="yes"/>
      <point x="752" y="1276"/>
      <point x="713" y="1313"/>
      <point x="680" y="1350" type="curve" smooth="yes"/>
      <point x="639" y="1396"/>
      <point x="595" y="1440"/>
      <point x="542" y="1440" type="curve" smooth="yes"/>
      <point x="441" y="1440"/>
      <point x="295" y="1242"/>
    </contour>
    <contour>
      <point x="588" y="270" type="curve" smooth="yes"/>
      <point x="588" y="199"/>
      <point x="534" y="159"/>
      <point x="483" y="137" type="curve"/>
      <point x="483" y="408" type="line"/>
      <point x="549" y="389"/>
      <point x="588" y="323"/>
    </contour>
    <contour>
      <point x="938" y="257" type="curve" smooth="yes"/>
      <point x="938" y="307"/>
      <point x="995" y="338"/>
      <point x="1043" y="345" type="curve"/>
      <point x="1043" y="137" type="line"/>
      <point x="992" y="159"/>
      <point x="938" y="196"/>
    </contour>
  </outline>
</glyph>
<glyph name="uni1792" format="2">
  <advance width="1476"/>
  <unicode hex="1792"/>
  <anchor x="1231" y="0" name="L"/>
  <anchor x="1231" y="1440" name="U"/>
  <anchor x="763" y="1440" name="um"/>
  <anchor x="763" y="0" name="um.1"/>
  <outline>
    <contour>
      <point x="1231" y="68" type="curve"/>
      <point x="1231" y="822" type="line"/>
      <point x="1206" y="885"/>
      <point x="1125" y="900"/>
      <point x="1060" y="900" type="curve"/>
      <point x="894" y="869"/>
      <point x="816" y="729"/>
      <point x="816" y="640" type="curve" smooth="yes"/>
      <point x="816" y="526"/>
      <point x="913" y="458"/>
      <point x="1043" y="445" type="curve"/>
      <point x="1043" y="215" type="line" smooth="yes"/>
      <point x="1043" y="172"/>
      <point x="1038" y="150"/>
      <point x="1014" y="150" type="curve" smooth="yes"/>
      <point x="1003" y="150"/>
      <point x="944" y="191"/>
      <point x="873" y="247" type="curve" smooth="yes"/>
      <point x="837" y="275"/>
      <point x="799" y="300"/>
      <point x="763" y="300" type="curve" smooth="yes"/>
      <point x="727" y="300"/>
      <point x="689" y="275"/>
      <point x="653" y="247" type="curve" smooth="yes"/>
      <point x="582" y="191"/>
      <point x="523" y="150"/>
      <point x="512" y="150" type="curve" smooth="yes"/>
      <point x="488" y="150"/>
      <point x="483" y="172"/>
      <point x="483" y="215" type="curve" smooth="yes"/>
      <point x="483" y="1000" type="line"/>
      <point x="400" y="1016"/>
      <point x="300" y="1041"/>
      <point x="300" y="1104" type="curve" smooth="yes"/>
      <point x="300" y="1107" type="line" smooth="yes"/>
      <point x="300" y="1115"/>
      <point x="301" y="1136"/>
      <point x="311" y="1160" type="curve" smooth="yes"/>
      <point x="320" y="1182"/>
      <point x="351" y="1215"/>
      <point x="369" y="1227" type="curve" smooth="yes"/>
      <point x="377" y="1233"/>
      <point x="387" y="1236"/>
      <point x="397" y="1236" type="curve" smooth="yes"/>
      <point x="466" y="1236"/>
      <point x="639" y="1114"/>
      <point x="724" y="1114" type="curve" smooth="yes"/>
      <point x="761" y="1114"/>
      <point x="792" y="1148"/>
      <point x="811" y="1172" type="curve" smooth="yes"/>
      <point x="835" y="1201"/>
      <point x="864" y="1236"/>
      <point x="895" y="1236" type="curve" smooth="yes"/>
      <point x="964" y="1236"/>
      <point x="1137" y="1114"/>
      <point x="1222" y="1114" type="curve" smooth="yes"/>
      <point x="1303" y="1114"/>
      <point x="1332" y="1219"/>
      <point x="1363" y="1305" type="curve"/>
      <point x="1340" y="1295"/>
      <point x="1316" y="1293"/>
      <point x="1293" y="1293" type="curve" smooth="yes"/>
      <point x="1228" y="1293"/>
      <point x="1023" y="1440"/>
      <point x="951" y="1440" type="curve" smooth="yes"/>
      <point x="927" y="1440"/>
      <point x="890" y="1419"/>
      <point x="856" y="1387" type="curve" smooth="yes"/>
      <point x="829" y="1361"/>
      <point x="799" y="1331"/>
      <point x="771" y="1298" type="curve"/>
      <point x="692" y="1323"/>
      <point x="507" y="1440"/>
      <point x="443" y="1440" type="curve" smooth="yes"/>
      <point x="359" y="1440"/>
      <point x="166" y="1185"/>
      <point x="141" y="1081" type="curve" smooth="yes"/>
      <point x="140" y="1076"/>
      <point x="140" y="1055"/>
      <point x="140" y="1049" type="curve" smooth="yes"/>
      <point x="140" y="980"/>
      <point x="223" y="953"/>
      <point x="295" y="931" type="curve"/>
      <point x="295" y="68" type="line" smooth="yes"/>
      <point x="295" y="33"/>
      <point x="338" y="0"/>
      <point x="382" y="0" type="curve" smooth="yes"/>
      <point x="463" y="0" type="line" smooth="yes"/>
      <point x="516" y="0"/>
      <point x="581" y="46"/>
      <point x="613" y="72" type="curve" smooth="yes"/>
      <point x="683" y="128"/>
      <point x="737" y="168"/>
      <point x="763" y="168" type="curve" smooth="yes"/>
      <point x="789" y="168"/>
      <point x="843" y="128"/>
      <point x="913" y="72" type="curve" smooth="yes"/>
      <point x="945" y="46"/>
      <point x="1010" y="0"/>
      <point x="1063" y="0" type="curve" smooth="yes"/>
      <point x="1144" y="0" type="line" smooth="yes"/>
      <point x="1186" y="0"/>
      <point x="1231" y="33"/>
    </contour>
    <contour>
      <point x="938" y="640" type="curve" smooth="yes"/>
      <point x="938" y="701"/>
      <point x="992" y="741"/>
      <point x="1043" y="763" type="curve"/>
      <point x="1043" y="532" type="line"/>
      <point x="977" y="551"/>
      <point x="938" y="587"/>
    </contour>
  </outline>
</glyph>
<glyph name="uni179E" format="2">
  <advance width="1476"/>
  <unicode hex="179E"/>
  <anchor x="1231" y="0" name="L"/>
  <anchor x="1231" y="1440" name="U"/>
  <anchor x="763" y="0" name="lm"/>
  <anchor x="763" y="1440" name="um"/>
  <outline>
    <contour>
      <point x="295" y="939" type="curve"/>
      <point x="295" y="187" type="line" smooth="yes"/>
      <point x="295" y="87"/>
      <point x="567" y="0"/>
      <point x="763" y="0" type="curve" smooth="yes"/>
      <point x="959" y="0"/>
      <point x="1231" y="87"/>
      <point x="1231" y="187" type="curve" smooth="yes"/>
      <point x="1231" y="560" type="line"/>
      <point x="1254" y="570"/>
      <point x="1278" y="582"/>
      <point x="1305" y="597" type="curve" smooth="yes"/>
      <point x="1406" y="652"/>
      <point x="1468" y="756"/>
      <point x="1468" y="784" type="curve" smooth="yes"/>
      <point x="1468" y="788"/>
      <point x="1463" y="792"/>
      <point x="1459" y="792" type="curve" smooth="yes"/>
      <point x="1439" y="792"/>
      <point x="1352" y="739"/>
      <point x="1297" y="720" type="curve"/>
      <point x="1282" y="714"/>
      <point x="1258" y="706"/>
      <point x="1231" y="699" type="curve"/>
      <point x="1231" y="950" type="line" smooth="yes"/>
      <point x="1231" y="1015"/>
      <point x="1092" y="1114"/>
      <point x="972" y="1154" type="curve" smooth="yes"/>
      <point x="970" y="1155"/>
      <point x="969" y="1156"/>
      <point x="969" y="1158" type="curve"/>
      <point x="969" y="1160" type="line"/>
      <point x="974" y="1183"/>
      <point x="989" y="1215"/>
      <point x="1007" y="1227" type="curve" smooth="yes"/>
      <point x="1015" y="1233"/>
      <point x="1025" y="1236"/>
      <point x="1035" y="1236" type="curve" smooth="yes"/>
      <point x="1104" y="1236"/>
      <point x="1137" y="1165"/>
      <point x="1222" y="1165" type="curve" smooth="yes"/>
      <point x="1313" y="1165"/>
      <point x="1332" y="1260"/>
      <point x="1363" y="1346" type="curve"/>
      <point x="1340" y="1336"/>
      <point x="1316" y="1334"/>
      <point x="1293" y="1334" type="curve" smooth="yes"/>
      <point x="1238" y="1334"/>
      <point x="1153" y="1440"/>
      <point x="1081" y="1440" type="curve" smooth="yes"/>
      <point x="997" y="1440"/>
      <point x="894" y="1185"/>
      <point x="869" y="1081" type="curve"/>
      <point x="869" y="1079" type="line"/>
      <point x="869" y="1075"/>
      <point x="871" y="1070"/>
      <point x="876" y="1069" type="curve" smooth="yes"/>
      <point x="981" y="1057"/>
      <point x="1043" y="983"/>
      <point x="1043" y="939" type="curve" smooth="yes"/>
      <point x="1043" y="660" type="line"/>
      <point x="1001" y="660"/>
      <point x="985" y="675"/>
      <point x="985" y="702" type="curve" smooth="yes"/>
      <point x="985" y="720"/>
      <point x="1007" y="746"/>
      <point x="1024" y="756" type="curve"/>
      <point x="1007" y="768"/>
      <point x="979" y="777"/>
      <point x="941" y="777" type="curve" smooth="yes"/>
      <point x="865" y="777"/>
      <point x="813" y="728"/>
      <point x="813" y="671" type="curve" smooth="yes"/>
      <point x="813" y="599"/>
      <point x="873" y="521"/>
      <point x="1043" y="521" type="curve"/>
      <point x="1043" y="207" type="line" smooth="yes"/>
      <point x="1043" y="143"/>
      <point x="841" y="112"/>
      <point x="763" y="112" type="curve" smooth="yes"/>
      <point x="685" y="112"/>
      <point x="483" y="143"/>
      <point x="483" y="207" type="curve" smooth="yes"/>
      <point x="483" y="950" type="line" smooth="yes"/>
      <point x="483" y="1015"/>
      <point x="344" y="1114"/>
      <point x="224" y="1154" type="curve" smooth="yes"/>
      <point x="222" y="1155"/>
      <point x="221" y="1156"/>
      <point x="221" y="1158" type="curve"/>
      <point x="221" y="1160" type="line"/>
      <point x="226" y="1183"/>
      <point x="241" y="1215"/>
      <point x="259" y="1227" type="curve" smooth="yes"/>
      <point x="267" y="1233"/>
      <point x="277" y="1236"/>
      <point x="287" y="1236" type="curve" smooth="yes"/>
      <point x="356" y="1236"/>
      <point x="389" y="1165"/>
      <point x="474" y="1165" type="curve" smooth="yes"/>
      <point x="565" y="1165"/>
      <point x="584" y="1260"/>
      <point x="615" y="1346" type="curve"/>
      <point x="592" y="1336"/>
      <point x="568" y="1334"/>
      <point x="545" y="1334" type="curve" smooth="yes"/>
      <point x="490" y="1334"/>
      <point x="405" y="1440"/>
      <point x="333" y="1440" type="curve" smooth="yes"/>
      <point x="249" y="1440"/>
      <point x="146" y="1185"/>
      <point x="121" y="1081" type="curve"/>
      <point x="121" y="1079" type="line"/>
      <point x="121" y="1075"/>
      <point x="123" y="1070"/>
      <point x="128" y="1069" type="curve" smooth="yes"/>
      <point x="233" y="1057"/>
      <point x="295" y="983"/>
    </contour>
  </outline>
</glyph>
<glyph name="uni17D8" format="2">
  <advance width="4302"/>
  <unicode hex="17D8"/>
  <outline>
    <component base="uni17D4" xOffset="-749"/>
    <component base="uni17D4" xOffset="2383"/>
    <contour>
      <point x="1385" y="1253" type="curve"/>
      <point x="1385" y="78" type="line"/>
      <point x="1410" y="15"/>
      <point x="1491" y="0"/>
      <point x="1556" y="0" type="curve"/>
      <point x="1722" y="31"/>
      <point x="1800" y="171"/>
      <point x="1800" y="270" type="curve" smooth="yes"/>
      <point x="1800" y="384"/>
      <point x="1703" y="482"/>
      <point x="1573" y="495" type="curve"/>
      <point x="1573" y="1246" type="line" smooth="yes"/>
      <point x="1573" y="1301"/>
      <point x="1693" y="1328"/>
      <point x="1779" y="1328" type="curve" smooth="yes"/>
      <point x="1865" y="1328"/>
      <point x="1985" y="1301"/>
      <point x="1985" y="1246" type="curve" smooth="yes"/>
      <point x="1985" y="187" type="line" smooth="yes"/>
      <point x="1985" y="87"/>
      <point x="2183" y="0"/>
      <point x="2379" y="0" type="curve" smooth="yes"/>
      <point x="2575" y="0"/>
      <point x="2773" y="87"/>
      <point x="2773" y="187" type="curve" smooth="yes"/>
      <point x="2773" y="950" type="line" smooth="yes"/>
      <point x="2773" y="1015"/>
      <point x="2634" y="1114"/>
      <point x="2514" y="1154" type="curve" smooth="yes"/>
      <point x="2512" y="1155"/>
      <point x="2511" y="1156"/>
      <point x="2511" y="1158" type="curve"/>
      <point x="2511" y="1160" type="line"/>
      <point x="2516" y="1183"/>
      <point x="2531" y="1215"/>
      <point x="2549" y="1227" type="curve" smooth="yes"/>
      <point x="2557" y="1233"/>
      <point x="2567" y="1236"/>
      <point x="2577" y="1236" type="curve" smooth="yes"/>
      <point x="2646" y="1236"/>
      <point x="2679" y="1165"/>
      <point x="2764" y="1165" type="curve" smooth="yes"/>
      <point x="2855" y="1165"/>
      <point x="2874" y="1260"/>
      <point x="2905" y="1346" type="curve"/>
      <point x="2882" y="1336"/>
      <point x="2858" y="1334"/>
      <point x="2835" y="1334" type="curve" smooth="yes"/>
      <point x="2780" y="1334"/>
      <point x="2695" y="1440"/>
      <point x="2623" y="1440" type="curve" smooth="yes"/>
      <point x="2539" y="1440"/>
      <point x="2436" y="1185"/>
      <point x="2411" y="1081" type="curve"/>
      <point x="2411" y="1079" type="line"/>
      <point x="2411" y="1075"/>
      <point x="2413" y="1070"/>
      <point x="2418" y="1069" type="curve" smooth="yes"/>
      <point x="2523" y="1057"/>
      <point x="2585" y="983"/>
      <point x="2585" y="939" type="curve" smooth="yes"/>
      <point x="2585" y="194" type="line" smooth="yes"/>
      <point x="2585" y="139"/>
      <point x="2465" y="112"/>
      <point x="2379" y="112" type="curve" smooth="yes"/>
      <point x="2293" y="112"/>
      <point x="2173" y="139"/>
      <point x="2173" y="194" type="curve" smooth="yes"/>
      <point x="2173" y="1253" type="line" smooth="yes"/>
      <point x="2173" y="1353"/>
      <point x="1975" y="1440"/>
      <point x="1779" y="1440" type="curve" smooth="yes"/>
      <point x="1583" y="1440"/>
      <point x="1385" y="1353"/>
    </contour>
    <contour>
      <point x="1678" y="270" type="curve" smooth="yes"/>
      <point x="1678" y="199"/>
      <point x="1624" y="159"/>
      <point x="1573" y="137" type="curve"/>
      <point x="1573" y="408" type="line"/>
      <point x="1639" y="389"/>
      <point x="1678" y="323"/>
    </contour>
  </outline>
</glyph>
<glyph name="uni19F2" format="2">
  <advance width="1840"/>
  <unicode hex="19F2"/>
  <outline>
    <contour>
      <point x="1304" y="618" type="line"/>
      <point x="1304" y="2058" type="line"/>
      <point x="1078" y="2058" type="line"/>
      <point x="1078" y="1972"/>
      <point x="944" y="1713"/>
      <point x="809" y="1713" type="curve" smooth="yes"/>
      <point x="723" y="1713"/>
      <point x="723" y="1822"/>
      <point x="723" y="1856" type="curve"/>
      <point x="785" y="1868"/>
      <point x="852" y="1932"/>
      <point x="852" y="1988" type="curve"/>
      <point x="852" y="2043"/>
      <point x="812" y="2096"/>
      <point x="703" y="2096" type="curve"/>
      <point x="579" y="2096"/>
      <point x="497" y="1996"/>
      <point x="497" y="1856" type="curve"/>
      <point x="497" y="1743"/>
      <point x="609" y="1601"/>
      <point x="774" y="1601" type="curve"/>
      <point x="909" y="1601"/>
      <point x="1018" y="1702"/>
      <point x="1078" y="1800" type="curve"/>
      <point x="1078" y="618" type="line"/>
    </contour>
    <contour>
      <point x="1359" y="-997" type="line"/>
      <point x="1359" y="-1052"/>
      <point x="1053" y="-1089"/>
      <point x="925" y="-1089" type="curve" smooth="yes"/>
      <point x="797" y="-1089"/>
      <point x="491" y="-1052"/>
      <point x="491" y="-997" type="curve" smooth="yes"/>
      <point x="491" y="185" type="line" smooth="yes"/>
      <point x="491" y="336"/>
      <point x="411" y="446"/>
      <point x="363" y="492" type="curve"/>
      <point x="332" y="518"/>
      <point x="288" y="543"/>
      <point x="185" y="543" type="curve" smooth="yes"/>
      <point x="103" y="543"/>
      <point x="28" y="475"/>
      <point x="17" y="432" type="curve"/>
      <point x="88" y="458"/>
      <point x="117" y="458"/>
      <point x="141" y="458" type="curve" smooth="yes"/>
      <point x="257" y="458"/>
      <point x="303" y="257"/>
      <point x="303" y="165" type="curve" smooth="yes"/>
      <point x="303" y="-1036" type="line" smooth="yes"/>
      <point x="303" y="-1136"/>
      <point x="677" y="-1200"/>
      <point x="925" y="-1200" type="curve" smooth="yes"/>
      <point x="1173" y="-1200"/>
      <point x="1547" y="-1136"/>
      <point x="1547" y="-1036" type="curve" smooth="yes"/>
      <point x="1547" y="-18" type="line" smooth="yes"/>
      <point x="1547" y="42"/>
      <point x="1401" y="240"/>
      <point x="1300" y="240" type="curve" smooth="yes"/>
      <point x="1247" y="240"/>
      <point x="1203" y="196"/>
      <point x="1162" y="150" type="curve" smooth="yes"/>
      <point x="1129" y="113"/>
      <point x="1090" y="76"/>
      <point x="1079" y="76" type="curve" smooth="yes"/>
      <point x="1068" y="76"/>
      <point x="1029" y="113"/>
      <point x="996" y="150" type="curve" smooth="yes"/>
      <point x="955" y="196"/>
      <point x="911" y="240"/>
      <point x="858" y="240" type="curve" smooth="yes"/>
      <point x="757" y="240"/>
      <point x="611" y="42"/>
      <point x="611" y="-18" type="curve" smooth="yes"/>
      <point x="611" y="-601" type="line"/>
      <point x="636" y="-664"/>
      <point x="717" y="-680"/>
      <point x="782" y="-680" type="curve"/>
      <point x="948" y="-649"/>
      <point x="1026" y="-511"/>
      <point x="1026" y="-432" type="curve" smooth="yes"/>
      <point x="1026" y="-304"/>
      <point x="926" y="-236"/>
      <point x="799" y="-229" type="curve"/>
      <point x="799" y="-55" type="line" smooth="yes"/>
      <point x="799" y="-7"/>
      <point x="855" y="72"/>
      <point x="880" y="72" type="curve" smooth="yes"/>
      <point x="884" y="72"/>
      <point x="920" y="38"/>
      <point x="952" y="4" type="curve" smooth="yes"/>
      <point x="989" y="-37"/>
      <point x="1030" y="-79"/>
      <point x="1079" y="-79" type="curve" smooth="yes"/>
      <point x="1128" y="-79"/>
      <point x="1169" y="-37"/>
      <point x="1206" y="4" type="curve" smooth="yes"/>
      <point x="1238" y="38"/>
      <point x="1274" y="72"/>
      <point x="1278" y="72" type="curve" smooth="yes"/>
      <point x="1303" y="72"/>
      <point x="1359" y="-7"/>
      <point x="1359" y="-55" type="curve" smooth="yes"/>
    </contour>
    <contour>
      <point x="904" y="-423" type="curve" smooth="yes"/>
      <point x="904" y="-484"/>
      <point x="850" y="-521"/>
      <point x="799" y="-543" type="curve"/>
      <point x="799" y="-335" type="line"/>
      <point x="847" y="-342"/>
      <point x="904" y="-373"/>
    </contour>
  </outline>
</glyph>
<glyph name="uni19F3" format="2">
  <advance width="1840"/>
  <unicode hex="19F3"/>
  <outline>
    <contour>
      <point x="1304" y="620" type="line"/>
      <point x="1304" y="2060" type="line"/>
      <point x="1078" y="2060" type="line"/>
      <point x="1078" y="1974"/>
      <point x="944" y="1715"/>
      <point x="809" y="1715" type="curve" smooth="yes"/>
      <point x="723" y="1715"/>
      <point x="723" y="1824"/>
      <point x="723" y="1858" type="curve"/>
      <point x="785" y="1870"/>
      <point x="852" y="1934"/>
      <point x="852" y="1990" type="curve"/>
      <point x="852" y="2045"/>
      <point x="812" y="2098"/>
      <point x="703" y="2098" type="curve"/>
      <point x="579" y="2098"/>
      <point x="497" y="1998"/>
      <point x="497" y="1858" type="curve"/>
      <point x="497" y="1745"/>
      <point x="609" y="1603"/>
      <point x="774" y="1603" type="curve"/>
      <point x="909" y="1603"/>
      <point x="1018" y="1704"/>
      <point x="1078" y="1802" type="curve"/>
      <point x="1078" y="620" type="line"/>
    </contour>
    <contour>
      <point x="225" y="72" type="curve"/>
      <point x="225" y="-1121" type="line"/>
      <point x="250" y="-1184"/>
      <point x="331" y="-1200"/>
      <point x="396" y="-1200" type="curve"/>
      <point x="562" y="-1169"/>
      <point x="640" y="-1031"/>
      <point x="640" y="-952" type="curve" smooth="yes"/>
      <point x="640" y="-824"/>
      <point x="540" y="-756"/>
      <point x="413" y="-749" type="curve"/>
      <point x="413" y="53" type="line" smooth="yes"/>
      <point x="413" y="108"/>
      <point x="551" y="128"/>
      <point x="619" y="128" type="curve" smooth="yes"/>
      <point x="687" y="128"/>
      <point x="825" y="108"/>
      <point x="825" y="53" type="curve" smooth="yes"/>
      <point x="825" y="-1200" type="line"/>
      <point x="1013" y="-1200" type="line"/>
      <point x="1013" y="53" type="line" smooth="yes"/>
      <point x="1013" y="108"/>
      <point x="1151" y="128"/>
      <point x="1219" y="128" type="curve" smooth="yes"/>
      <point x="1287" y="128"/>
      <point x="1425" y="108"/>
      <point x="1425" y="53" type="curve" smooth="yes"/>
      <point x="1425" y="-1200" type="line"/>
      <point x="1613" y="-1200" type="line"/>
      <point x="1613" y="72" type="line" smooth="yes"/>
      <point x="1613" y="172"/>
      <point x="1415" y="240"/>
      <point x="1219" y="240" type="curve" smooth="yes"/>
      <point x="1107" y="240"/>
      <point x="993" y="218"/>
      <point x="918" y="181" type="curve"/>
      <point x="843" y="218"/>
      <point x="731" y="240"/>
      <point x="619" y="240" type="curve" smooth="yes"/>
      <point x="423" y="240"/>
      <point x="225" y="172"/>
    </contour>
    <contour>
      <point x="518" y="-943" type="curve" smooth="yes"/>
      <point x="518" y="-1004"/>
      <point x="464" y="-1041"/>
      <point x="413" y="-1063" type="curve"/>
      <point x="413" y="-855" type="line"/>
      <point x="461" y="-862"/>
      <point x="518" y="-893"/>
    </contour>
  </outline>
</glyph>
<glyph name="uni19F8" format="2">
  <advance width="1390"/>
  <unicode hex="19F8"/>
  <outline>
    <contour>
      <point x="1104" y="620" type="line"/>
      <point x="1104" y="2060" type="line"/>
      <point x="878" y="2060" type="line"/>
      <point x="878" y="1974"/>
      <point x="744" y="1715"/>
      <point x="609" y="1715" type="curve" smooth="yes"/>
      <point x="523" y="1715"/>
      <point x="523" y="1824"/>
      <point x="523" y="1858" type="curve"/>
      <point x="585" y="1870"/>
      <point x="652" y="1934"/>
      <point x="652" y="1990" type="curve"/>
      <point x="652" y="2045"/>
      <point x="612" y="2098"/>
      <point x="503" y="2098" type="curve"/>
      <point x="379" y="2098"/>
      <point x="297" y="1998"/>
      <point x="297" y="1858" type="curve"/>
      <point x="297" y="1745"/>
      <point x="409" y="1603"/>
      <point x="574" y="1603" type="curve"/>
      <point x="709" y="1603"/>
      <point x="818" y="1704"/>
      <point x="878" y="1802" type="curve"/>
      <point x="878" y="620" type="line"/>
    </contour>
    <contour>
      <point x="214" y="-674" type="curve" smooth="yes"/>
      <point x="214" y="-1032"/>
      <point x="360" y="-1200"/>
      <point x="475" y="-1200" type="curve"/>
      <point x="589" y="-1200"/>
      <point x="664" y="-1147"/>
      <point x="719" y="-1096" type="curve"/>
      <point x="776" y="-1147"/>
      <point x="855" y="-1200"/>
      <point x="964" y="-1200" type="curve"/>
      <point x="1094" y="-1200"/>
      <point x="1190" y="-918"/>
      <point x="1190" y="-757" type="curve"/>
      <point x="1190" y="-588"/>
      <point x="1102" y="-448"/>
      <point x="930" y="-448" type="curve"/>
      <point x="811" y="-448"/>
      <point x="716" y="-531"/>
      <point x="716" y="-634" type="curve"/>
      <point x="716" y="-689"/>
      <point x="741" y="-780"/>
      <point x="849" y="-780" type="curve"/>
      <point x="924" y="-780"/>
      <point x="982" y="-731"/>
      <point x="982" y="-667" type="curve"/>
      <point x="982" y="-634"/>
      <point x="964" y="-595"/>
      <point x="945" y="-588" type="curve"/>
      <point x="948" y="-584"/>
      <point x="952" y="-580"/>
      <point x="960" y="-580" type="curve" smooth="yes"/>
      <point x="986" y="-580"/>
      <point x="1022" y="-698"/>
      <point x="1022" y="-764" type="curve"/>
      <point x="1022" y="-842"/>
      <point x="986" y="-1046"/>
      <point x="911" y="-1046" type="curve"/>
      <point x="881" y="-1046"/>
      <point x="787" y="-971"/>
      <point x="719" y="-904" type="curve"/>
      <point x="653" y="-971"/>
      <point x="566" y="-1049"/>
      <point x="528" y="-1049" type="curve"/>
      <point x="424" y="-1049"/>
      <point x="402" y="-817"/>
      <point x="402" y="-695" type="curve"/>
      <point x="402" y="-359"/>
      <point x="506" y="-205"/>
      <point x="578" y="-205" type="curve"/>
      <point x="679" y="-205"/>
      <point x="818" y="-284"/>
      <point x="922" y="-284" type="curve"/>
      <point x="1073" y="-284"/>
      <point x="1166" y="-135"/>
      <point x="1166" y="44" type="curve"/>
      <point x="1166" y="105"/>
      <point x="1105" y="240"/>
      <point x="1105" y="308" type="curve"/>
      <point x="1105" y="398"/>
      <point x="1137" y="471"/>
      <point x="1219" y="471" type="curve"/>
      <point x="1184" y="511"/>
      <point x="1156" y="543"/>
      <point x="1080" y="543" type="curve" smooth="yes"/>
      <point x="983" y="543"/>
      <point x="926" y="443"/>
      <point x="926" y="328" type="curve"/>
      <point x="926" y="244"/>
      <point x="979" y="131"/>
      <point x="979" y="48" type="curve"/>
      <point x="979" y="-42"/>
      <point x="960" y="-117"/>
      <point x="881" y="-117" type="curve"/>
      <point x="764" y="-94"/>
      <point x="686" y="-38"/>
      <point x="532" y="-38" type="curve" smooth="yes"/>
      <point x="424" y="-38"/>
      <point x="214" y="-212"/>
    </contour>
  </outline>
</glyph>
<glyph name="uni19FA" format="2">
  <advance width="2660"/>
  <unicode hex="19FA"/>
  <outline>
    <contour>
      <point x="1644" y="620" type="line"/>
      <point x="1644" y="2060" type="line"/>
      <point x="1418" y="2060" type="line"/>
      <point x="1418" y="1974"/>
      <point x="1284" y="1715"/>
      <point x="1149" y="1715" type="curve" smooth="yes"/>
      <point x="1063" y="1715"/>
      <point x="1063" y="1824"/>
      <point x="1063" y="1858" type="curve"/>
      <point x="1125" y="1870"/>
      <point x="1192" y="1934"/>
      <point x="1192" y="1990" type="curve"/>
      <point x="1192" y="2045"/>
      <point x="1152" y="2098"/>
      <point x="1043" y="2098" type="curve"/>
      <point x="919" y="2098"/>
      <point x="837" y="1998"/>
      <point x="837" y="1858" type="curve"/>
      <point x="837" y="1745"/>
      <point x="949" y="1603"/>
      <point x="1114" y="1603" type="curve"/>
      <point x="1249" y="1603"/>
      <point x="1358" y="1704"/>
      <point x="1418" y="1802" type="curve"/>
      <point x="1418" y="620" type="line"/>
    </contour>
    <contour>
      <point x="640" y="-591" type="curve" smooth="yes"/>
      <point x="776" y="-591"/>
      <point x="899" y="-491"/>
      <point x="899" y="-359" type="curve"/>
      <point x="899" y="-258"/>
      <point x="836" y="-205"/>
      <point x="751" y="-205" type="curve"/>
      <point x="665" y="-205"/>
      <point x="643" y="-254"/>
      <point x="643" y="-284" type="curve"/>
      <point x="643" y="-326"/>
      <point x="663" y="-363"/>
      <point x="731" y="-363" type="curve"/>
      <point x="731" y="-420"/>
      <point x="689" y="-461"/>
      <point x="644" y="-461" type="curve"/>
      <point x="535" y="-461"/>
      <point x="466" y="-348"/>
      <point x="466" y="-216" type="curve"/>
      <point x="466" y="-3"/>
      <point x="606" y="112"/>
      <point x="748" y="112" type="curve"/>
      <point x="914" y="112"/>
      <point x="1066" y="-44"/>
      <point x="1066" y="-442" type="curve"/>
      <point x="1066" y="-768"/>
      <point x="815" y="-1128"/>
      <point x="486" y="-1128" type="curve"/>
      <point x="463" y="-1128"/>
      <point x="446" y="-1128"/>
      <point x="425" y="-1125" type="curve"/>
      <point x="471" y="-1174"/>
      <point x="550" y="-1200"/>
      <point x="632" y="-1200" type="curve"/>
      <point x="921" y="-1200"/>
      <point x="1254" y="-855"/>
      <point x="1254" y="-423" type="curve"/>
      <point x="1254" y="38"/>
      <point x="1000" y="240"/>
      <point x="748" y="240" type="curve"/>
      <point x="474" y="240"/>
      <point x="286" y="56"/>
      <point x="286" y="-180" type="curve"/>
      <point x="286" y="-405"/>
      <point x="418" y="-591"/>
    </contour>
    <contour>
      <point x="1438" y="-480" type="curve" smooth="yes"/>
      <point x="1438" y="-892"/>
      <point x="1594" y="-1200"/>
      <point x="1906" y="-1200" type="curve"/>
      <point x="2218" y="-1200"/>
      <point x="2372" y="-892"/>
      <point x="2372" y="-480" type="curve"/>
      <point x="2372" y="-68"/>
      <point x="2218" y="240"/>
      <point x="1906" y="240" type="curve"/>
      <point x="1594" y="240"/>
      <point x="1438" y="-68"/>
    </contour>
    <contour>
      <point x="1626" y="-480" type="curve" smooth="yes"/>
      <point x="1626" y="-161"/>
      <point x="1710" y="132"/>
      <point x="1906" y="132" type="curve"/>
      <point x="2102" y="132"/>
      <point x="2187" y="-161"/>
      <point x="2187" y="-480" type="curve"/>
      <point x="2187" y="-799"/>
      <point x="2102" y="-1092"/>
      <point x="1906" y="-1092" type="curve"/>
      <point x="1710" y="-1092"/>
      <point x="1626" y="-799"/>
    </contour>
  </outline>
</glyph>
<glyph name="uni19FD" format="2">
  <advance width="3200"/>
  <unicode hex="19FD"/>
  <outline>
    <contour>
      <point x="1984" y="620" type="line"/>
      <point x="1984" y="2060" type="line"/>
      <point x="1758" y="2060" type="line"/>
      <point x="1758" y="1974"/>
      <point x="1624" y="1715"/>
      <point x="1489" y="1715" type="curve" smooth="yes"/>
      <point x="1403" y="1715"/>
      <point x="1403" y="1824"/>
      <point x="1403" y="1858" type="curve"/>
      <point x="1465" y="1870"/>
      <point x="1532" y="1934"/>
      <point x="1532" y="1990" type="curve"/>
      <point x="1532" y="2045"/>
      <point x="1492" y="2098"/>
      <point x="1383" y="2098" type="curve"/>
      <point x="1259" y="2098"/>
      <point x="1177" y="1998"/>
      <point x="1177" y="1858" type="curve"/>
      <point x="1177" y="1745"/>
      <point x="1289" y="1603"/>
      <point x="1454" y="1603" type="curve"/>
      <point x="1589" y="1603"/>
      <point x="1698" y="1704"/>
      <point x="1758" y="1802" type="curve"/>
      <point x="1758" y="620" type="line"/>
    </contour>
    <contour>
      <point x="640" y="-591" type="curve" smooth="yes"/>
      <point x="776" y="-591"/>
      <point x="899" y="-491"/>
      <point x="899" y="-359" type="curve"/>
      <point x="899" y="-258"/>
      <point x="836" y="-205"/>
      <point x="751" y="-205" type="curve"/>
      <point x="665" y="-205"/>
      <point x="643" y="-254"/>
      <point x="643" y="-284" type="curve"/>
      <point x="643" y="-326"/>
      <point x="663" y="-363"/>
      <point x="731" y="-363" type="curve"/>
      <point x="731" y="-420"/>
      <point x="689" y="-461"/>
      <point x="644" y="-461" type="curve"/>
      <point x="535" y="-461"/>
      <point x="466" y="-348"/>
      <point x="466" y="-216" type="curve"/>
      <point x="466" y="-3"/>
      <point x="606" y="112"/>
      <point x="748" y="112" type="curve"/>
      <point x="914" y="112"/>
      <point x="1066" y="-44"/>
      <point x="1066" y="-442" type="curve"/>
      <point x="1066" y="-768"/>
      <point x="815" y="-1128"/>
      <point x="486" y="-1128" type="curve"/>
      <point x="463" y="-1128"/>
      <point x="446" y="-1128"/>
      <point x="425" y="-1125" type="curve"/>
      <point x="471" y="-1174"/>
      <point x="550" y="-1200"/>
      <point x="632" y="-1200" type="curve"/>
      <point x="921" y="-1200"/>
      <point x="1254" y="-855"/>
      <point x="1254" y="-423" type="curve"/>
      <point x="1254" y="38"/>
      <point x="1000" y="240"/>
      <point x="748" y="240" type="curve"/>
      <point x="474" y="240"/>
      <point x="286" y="56"/>
      <point x="286" y="-180" type="curve"/>
      <point x="286" y="-405"/>
      <point x="418" y="-591"/>
    </contour>
    <contour>
      <point x="1535" y="72" type="curve"/>
      <point x="1535" y="-1121" type="line"/>
      <point x="1560" y="-1184"/>
      <point x="1641" y="-1200"/>
      <point x="1706" y="-1200" type="curve"/>
      <point x="1872" y="-1169"/>
      <point x="1950" y="-1031"/>
      <point x="1950" y="-952" type="curve" smooth="yes"/>
      <point x="1950" y="-824"/>
      <point x="1850" y="-756"/>
      <point x="1723" y="-749" type="curve"/>
      <point x="1723" y="53" type="line" smooth="yes"/>
      <point x="1723" y="108"/>
      <point x="1861" y="128"/>
      <point x="1929" y="128" type="curve" smooth="yes"/>
      <point x="1997" y="128"/>
      <point x="2135" y="108"/>
      <point x="2135" y="53" type="curve" smooth="yes"/>
      <point x="2135" y="-1200" type="line"/>
      <point x="2323" y="-1200" type="line"/>
      <point x="2323" y="53" type="line" smooth="yes"/>
      <point x="2323" y="108"/>
      <point x="2461" y="128"/>
      <point x="2529" y="128" type="curve" smooth="yes"/>
      <point x="2597" y="128"/>
      <point x="2735" y="108"/>
      <point x="2735" y="53" type="curve" smooth="yes"/>
      <point x="2735" y="-1200" type="line"/>
      <point x="2923" y="-1200" type="line"/>
      <point x="2923" y="72" type="line" smooth="yes"/>
      <point x="2923" y="172"/>
      <point x="2725" y="240"/>
      <point x="2529" y="240" type="curve" smooth="yes"/>
      <point x="2417" y="240"/>
      <point x="2303" y="218"/>
      <point x="2228" y="181" type="curve"/>
      <point x="2153" y="218"/>
      <point x="2041" y="240"/>
      <point x="1929" y="240" type="curve" smooth="yes"/>
      <point x="1733" y="240"/>
      <point x="1535" y="172"/>
    </contour>
    <contour>
      <point x="1828" y="-943" type="curve" smooth="yes"/>
      <point x="1828" y="-1004"/>
      <point x="1774" y="-1041"/>
      <point x="1723" y="-1063" type="curve"/>
      <point x="1723" y="-855" type="line"/>
      <point x="1771" y="-862"/>
      <point x="1828" y="-893"/>
    </contour>
  </outline>
</glyph>
<glyph name="uni178917C5.rightalt" format="2">
  <advance width="2844"/>
  <anchor x="1871" y="0" name="L1"/>
  <anchor x="2599" y="0" name="L2"/>
  <anchor x="1871" y="1440" name="U1"/>
  <anchor x="2599" y="1922" name="U2"/>
  <anchor x="1083" y="0" name="lm"/>
  <anchor x="1457" y="1440" name="um"/>
  <anchor x="2188" y="1922" name="um2"/>
  <outline>
    <contour>
      <point x="588" y="270" type="curve" smooth="yes"/>
      <point x="588" y="199"/>
      <point x="534" y="159"/>
      <point x="483" y="137" type="curve"/>
      <point x="483" y="408" type="line"/>
      <point x="549" y="389"/>
      <point x="588" y="323"/>
    </contour>
    <contour>
      <point x="295" y="1182" type="curve"/>
      <point x="295" y="78" type="line"/>
      <point x="320" y="15"/>
      <point x="401" y="0"/>
      <point x="466" y="0" type="curve"/>
      <point x="632" y="31"/>
      <point x="710" y="171"/>
      <point x="710" y="270" type="curve" smooth="yes"/>
      <point x="710" y="384"/>
      <point x="613" y="482"/>
      <point x="483" y="495" type="curve"/>
      <point x="483" y="1145" type="line" smooth="yes"/>
      <point x="483" y="1193"/>
      <point x="539" y="1272"/>
      <point x="564" y="1272" type="curve" smooth="yes"/>
      <point x="568" y="1272"/>
      <point x="604" y="1238"/>
      <point x="636" y="1204" type="curve" smooth="yes"/>
      <point x="673" y="1163"/>
      <point x="714" y="1121"/>
      <point x="763" y="1121" type="curve" smooth="yes"/>
      <point x="812" y="1121"/>
      <point x="853" y="1163"/>
      <point x="890" y="1204" type="curve" smooth="yes"/>
      <point x="922" y="1238"/>
      <point x="958" y="1272"/>
      <point x="962" y="1272" type="curve" smooth="yes"/>
      <point x="987" y="1272"/>
      <point x="1043" y="1193"/>
      <point x="1043" y="1145" type="curve" smooth="yes"/>
      <point x="1043" y="0" type="line"/>
      <point x="1231" y="0" type="line"/>
      <point x="1231" y="1171" type="line"/>
      <point x="1243" y="1261"/>
      <point x="1347" y="1328"/>
      <point x="1457" y="1328" type="curve" smooth="yes"/>
      <point x="1567" y="1328"/>
      <point x="1683" y="1257"/>
      <point x="1683" y="1163" type="curve" smooth="yes"/>
      <point x="1683" y="0" type="line"/>
      <point x="1871" y="0" type="line"/>
      <point x="1871" y="1200" type="line" smooth="yes"/>
      <point x="1871" y="1336"/>
      <point x="1653" y="1440"/>
      <point x="1457" y="1440" type="curve" smooth="yes"/>
      <point x="1341" y="1440"/>
      <point x="1218" y="1404"/>
      <point x="1137" y="1343" type="curve"/>
      <point x="1089" y="1396"/>
      <point x="1031" y="1440"/>
      <point x="984" y="1440" type="curve" smooth="yes"/>
      <point x="931" y="1440"/>
      <point x="887" y="1396"/>
      <point x="846" y="1350" type="curve" smooth="yes"/>
      <point x="813" y="1313"/>
      <point x="774" y="1276"/>
      <point x="763" y="1276" type="curve" smooth="yes"/>
      <point x="752" y="1276"/>
      <point x="713" y="1313"/>
      <point x="680" y="1350" type="curve" smooth="yes"/>
      <point x="639" y="1396"/>
      <point x="595" y="1440"/>
      <point x="542" y="1440" type="curve" smooth="yes"/>
      <point x="441" y="1440"/>
      <point x="295" y="1242"/>
    </contour>
    <contour>
      <point x="2411" y="1792" type="curve"/>
      <point x="2411" y="1410" type="line" smooth="yes"/>
      <point x="2411" y="1352"/>
      <point x="2387" y="1307"/>
      <point x="2354" y="1261" type="curve"/>
      <point x="2495" y="1170" type="line"/>
      <point x="2558" y="1257"/>
      <point x="2599" y="1323"/>
      <point x="2599" y="1410" type="curve" smooth="yes"/>
      <point x="2599" y="1788" type="line" smooth="yes"/>
      <point x="2599" y="1858"/>
      <point x="2511" y="1922"/>
      <point x="2428" y="1922" type="curve" smooth="yes"/>
      <point x="2357" y="1922"/>
      <point x="2327" y="1908"/>
      <point x="2300" y="1893" type="curve"/>
      <point x="2375" y="1893"/>
      <point x="2411" y="1825"/>
    </contour>
    <contour>
      <point x="2090" y="1236" type="curve" smooth="yes"/>
      <point x="2159" y="1236"/>
      <point x="2301" y="1131"/>
      <point x="2372" y="1075" type="curve" smooth="yes"/>
      <point x="2389" y="1062"/>
      <point x="2411" y="1045"/>
      <point x="2411" y="1020" type="curve" smooth="yes"/>
      <point x="2411" y="0" type="line"/>
      <point x="2599" y="0" type="line"/>
      <point x="2599" y="1083" type="line" smooth="yes"/>
      <point x="2599" y="1144"/>
      <point x="2563" y="1184"/>
      <point x="2502" y="1232" type="curve" smooth="yes"/>
      <point x="2444" y="1278"/>
      <point x="2218" y="1440"/>
      <point x="2146" y="1440" type="curve" smooth="yes"/>
      <point x="2076" y="1440"/>
      <point x="1991" y="1372"/>
      <point x="1825" y="1199" type="curve" smooth="yes"/>
      <point x="1718" y="1087"/>
      <point x="1804" y="1036"/>
      <point x="1856" y="1088" type="curve" smooth="yes"/>
      <point x="1946" y="1178"/>
      <point x="2041" y="1236"/>
    </contour>
  </outline>
</glyph>
<glyph name="uni178B17C5.right" format="2">
  <advance width="2244"/>
  <anchor x="1271" y="0" name="L1"/>
  <anchor x="1999" y="0" name="L2"/>
  <anchor x="1271" y="1793" name="U1"/>
  <anchor x="1999" y="1922" name="U2"/>
  <anchor x="803" y="0" name="lm"/>
  <anchor x="803" y="1793" name="um"/>
  <anchor x="1541" y="1922" name="um2"/>
  <outline>
    <contour>
      <point x="1907" y="1186" type="line"/>
      <point x="1963" y="1265"/>
      <point x="1999" y="1328"/>
      <point x="1999" y="1410" type="curve" smooth="yes"/>
      <point x="1999" y="1788" type="line" smooth="yes"/>
      <point x="1999" y="1858"/>
      <point x="1911" y="1922"/>
      <point x="1828" y="1922" type="curve" smooth="yes"/>
      <point x="1757" y="1922"/>
      <point x="1727" y="1908"/>
      <point x="1700" y="1893" type="curve"/>
      <point x="1775" y="1893"/>
      <point x="1811" y="1825"/>
      <point x="1811" y="1792" type="curve" smooth="yes"/>
      <point x="1811" y="1410" type="line" smooth="yes"/>
      <point x="1811" y="1369"/>
      <point x="1799" y="1334"/>
      <point x="1780" y="1301" type="curve"/>
    </contour>
    <contour>
      <point x="1348" y="1192" type="line"/>
      <point x="1384" y="1212"/>
      <point x="1441" y="1236"/>
      <point x="1509" y="1236" type="curve" smooth="yes"/>
      <point x="1578" y="1236"/>
      <point x="1701" y="1131"/>
      <point x="1772" y="1075" type="curve" smooth="yes"/>
      <point x="1789" y="1062"/>
      <point x="1811" y="1045"/>
      <point x="1811" y="1020" type="curve" smooth="yes"/>
      <point x="1811" y="0" type="line"/>
      <point x="1999" y="0" type="line"/>
      <point x="1999" y="1083" type="line" smooth="yes"/>
      <point x="1999" y="1144"/>
      <point x="1963" y="1184"/>
      <point x="1902" y="1232" type="curve" smooth="yes"/>
      <point x="1844" y="1278"/>
      <point x="1637" y="1440"/>
      <point x="1565" y="1440" type="curve" smooth="yes"/>
      <point x="1519" y="1440"/>
      <point x="1470" y="1415"/>
      <point x="1439" y="1380" type="curve"/>
    </contour>
    <contour>
      <point x="1271" y="187" type="curve"/>
      <point x="1271" y="950" type="line" smooth="yes"/>
      <point x="1271" y="1015"/>
      <point x="1132" y="1114"/>
      <point x="1012" y="1154" type="curve" smooth="yes"/>
      <point x="1010" y="1155"/>
      <point x="1009" y="1156"/>
      <point x="1009" y="1158" type="curve"/>
      <point x="1009" y="1160" type="line"/>
      <point x="1014" y="1183"/>
      <point x="1029" y="1215"/>
      <point x="1047" y="1227" type="curve" smooth="yes"/>
      <point x="1055" y="1233"/>
      <point x="1065" y="1236"/>
      <point x="1075" y="1236" type="curve" smooth="yes"/>
      <point x="1144" y="1236"/>
      <point x="1177" y="1165"/>
      <point x="1262" y="1165" type="curve" smooth="yes"/>
      <point x="1360" y="1165"/>
      <point x="1444" y="1257"/>
      <point x="1444" y="1453" type="curve" smooth="yes"/>
      <point x="1444" y="1610"/>
      <point x="1346" y="1793"/>
      <point x="1146" y="1793" type="curve" smooth="yes"/>
      <point x="1078" y="1793"/>
      <point x="1039" y="1763"/>
      <point x="1039" y="1713" type="curve" smooth="yes"/>
      <point x="1039" y="1650"/>
      <point x="1083" y="1616"/>
      <point x="1169" y="1589" type="curve" smooth="yes"/>
      <point x="1263" y="1560"/>
      <point x="1355" y="1488"/>
      <point x="1355" y="1390" type="curve" smooth="yes"/>
      <point x="1355" y="1354"/>
      <point x="1350" y="1334"/>
      <point x="1333" y="1334" type="curve" smooth="yes"/>
      <point x="1278" y="1334"/>
      <point x="1193" y="1440"/>
      <point x="1121" y="1440" type="curve" smooth="yes"/>
      <point x="1037" y="1440"/>
      <point x="934" y="1185"/>
      <point x="909" y="1081" type="curve"/>
      <point x="909" y="1079" type="line"/>
      <point x="909" y="1075"/>
      <point x="911" y="1070"/>
      <point x="916" y="1069" type="curve" smooth="yes"/>
      <point x="1021" y="1057"/>
      <point x="1083" y="983"/>
      <point x="1083" y="939" type="curve" smooth="yes"/>
      <point x="1083" y="207" type="line" smooth="yes"/>
      <point x="1083" y="143"/>
      <point x="881" y="112"/>
      <point x="803" y="112" type="curve" smooth="yes"/>
      <point x="725" y="112"/>
      <point x="523" y="143"/>
      <point x="523" y="207" type="curve" smooth="yes"/>
      <point x="523" y="1112" type="line"/>
      <point x="498" y="1175"/>
      <point x="417" y="1190"/>
      <point x="352" y="1190" type="curve"/>
      <point x="186" y="1159"/>
      <point x="108" y="1019"/>
      <point x="108" y="920" type="curve" smooth="yes"/>
      <point x="108" y="806"/>
      <point x="205" y="708"/>
      <point x="335" y="695" type="curve"/>
      <point x="335" y="187" type="line" smooth="yes"/>
      <point x="335" y="87"/>
      <point x="607" y="0"/>
      <point x="803" y="0" type="curve" smooth="yes"/>
      <point x="999" y="0"/>
      <point x="1271" y="87"/>
    </contour>
    <contour>
      <point x="230" y="920" type="curve" smooth="yes"/>
      <point x="230" y="991"/>
      <point x="284" y="1031"/>
      <point x="335" y="1053" type="curve"/>
      <point x="335" y="782" type="line"/>
      <point x="269" y="801"/>
      <point x="230" y="867"/>
    </contour>
  </outline>
</glyph>
<glyph name="uni179017B6" format="2">
  <advance width="2204"/>
  <anchor x="1231" y="0" name="L1"/>
  <anchor x="1959" y="0" name="L2"/>
  <anchor x="1231" y="1743" name="U1"/>
  <anchor x="1959" y="1440" name="U2"/>
  <anchor x="763" y="0" name="lm"/>
  <anchor x="763" y="1743" name="um"/>
  <anchor x="1586" y="1440" name="um2"/>
  <outline>
    <contour>
      <point x="483" y="207" type="curve"/>
      <point x="483" y="1000" type="line"/>
      <point x="400" y="1016"/>
      <point x="300" y="1041"/>
      <point x="300" y="1104" type="curve" smooth="yes"/>
      <point x="300" y="1107" type="line" smooth="yes"/>
      <point x="300" y="1115"/>
      <point x="301" y="1136"/>
      <point x="311" y="1160" type="curve" smooth="yes"/>
      <point x="320" y="1182"/>
      <point x="351" y="1215"/>
      <point x="369" y="1227" type="curve" smooth="yes"/>
      <point x="377" y="1233"/>
      <point x="387" y="1236"/>
      <point x="397" y="1236" type="curve" smooth="yes"/>
      <point x="486" y="1236"/>
      <point x="789" y="1054"/>
      <point x="894" y="1054" type="curve" smooth="yes"/>
      <point x="1056" y="1054"/>
      <point x="1231" y="1186"/>
      <point x="1231" y="1374" type="curve" smooth="yes"/>
      <point x="1231" y="1468"/>
      <point x="1215" y="1519"/>
      <point x="1158" y="1602" type="curve" smooth="yes"/>
      <point x="1098" y="1689"/>
      <point x="1026" y="1743"/>
      <point x="930" y="1743" type="curve" smooth="yes"/>
      <point x="843" y="1743"/>
      <point x="813" y="1704"/>
      <point x="813" y="1658" type="curve" smooth="yes"/>
      <point x="813" y="1594"/>
      <point x="887" y="1550"/>
      <point x="951" y="1531" type="curve" smooth="yes"/>
      <point x="1092" y="1489"/>
      <point x="1111" y="1425"/>
      <point x="1111" y="1374" type="curve" smooth="yes"/>
      <point x="1111" y="1305"/>
      <point x="1040" y="1250"/>
      <point x="938" y="1250" type="curve" smooth="yes"/>
      <point x="859" y="1250"/>
      <point x="537" y="1440"/>
      <point x="443" y="1440" type="curve" smooth="yes"/>
      <point x="359" y="1440"/>
      <point x="166" y="1185"/>
      <point x="141" y="1081" type="curve" smooth="yes"/>
      <point x="140" y="1076"/>
      <point x="140" y="1055"/>
      <point x="140" y="1049" type="curve" smooth="yes"/>
      <point x="140" y="980"/>
      <point x="223" y="953"/>
      <point x="295" y="931" type="curve"/>
      <point x="295" y="187" type="line" smooth="yes"/>
      <point x="295" y="87"/>
      <point x="567" y="0"/>
      <point x="763" y="0" type="curve" smooth="yes"/>
      <point x="959" y="0"/>
      <point x="1231" y="87"/>
      <point x="1231" y="187" type="curve" smooth="yes"/>
      <point x="1231" y="820" type="line"/>
      <point x="1285" y="963"/>
      <point x="1408" y="1236"/>
      <point x="1525" y="1236" type="curve" smooth="yes"/>
      <point x="1574" y="1236"/>
      <point x="1697" y="1102"/>
      <point x="1739" y="1054" type="curve" smooth="yes"/>
      <point x="1752" y="1039"/>
      <point x="1771" y="1005"/>
      <point x="1771" y="980" type="curve" smooth="yes"/>
      <point x="1771" y="0" type="line"/>
      <point x="1959" y="0" type="line"/>
      <point x="1959" y="1043" type="line" smooth="yes"/>
      <point x="1959" y="1104"/>
      <point x="1938" y="1133"/>
      <point x="1887" y="1192" type="curve" smooth="yes"/>
      <point x="1845" y="1240"/>
      <point x="1643" y="1440"/>
      <point x="1581" y="1440" type="curve" smooth="yes"/>
      <point x="1388" y="1440"/>
      <point x="1259" y="1066"/>
      <point x="1178" y="883" type="curve" smooth="yes"/>
      <point x="1177" y="881"/>
      <point x="1176" y="879"/>
      <point x="1176" y="878" type="curve"/>
      <point x="1141" y="895"/>
      <point x="1098" y="900"/>
      <point x="1060" y="900" type="curve"/>
      <point x="894" y="869"/>
      <point x="816" y="729"/>
      <point x="816" y="640" type="curve" smooth="yes"/>
      <point x="816" y="526"/>
      <point x="913" y="458"/>
      <point x="1043" y="445" type="curve"/>
      <point x="1043" y="207" type="line" smooth="yes"/>
      <point x="1043" y="143"/>
      <point x="841" y="112"/>
      <point x="763" y="112" type="curve" smooth="yes"/>
      <point x="685" y="112"/>
      <point x="483" y="143"/>
    </contour>
    <contour>
      <point x="938" y="640" type="curve" smooth="yes"/>
      <point x="938" y="701"/>
      <point x="992" y="741"/>
      <point x="1043" y="763" type="curve"/>
      <point x="1043" y="532" type="line"/>
      <point x="977" y="551"/>
      <point x="938" y="587"/>
    </contour>
  </outline>
</glyph>
<glyph name="uni179317C5.right" format="2">
  <advance width="2204"/>
  <anchor x="1231" y="0" name="L1"/>
  <anchor x="1959" y="0" name="L2"/>
  <anchor x="1231" y="1440" name="U1"/>
  <anchor x="1959" y="1922" name="U2"/>
  <anchor x="763" y="0" name="lm"/>
  <anchor x="763" y="1440" name="um"/>
  <anchor x="1501" y="1922" name="um2"/>
  <outline>
    <contour>
      <point x="1771" y="1792" type="curve"/>
      <point x="1771" y="1410" type="line" smooth="yes"/>
      <point x="1771" y="1352"/>
      <point x="1747" y="1307"/>
      <point x="1714" y="1261" type="curve"/>
      <point x="1855" y="1170" type="line"/>
      <point x="1918" y="1257"/>
      <point x="1959" y="1323"/>
      <point x="1959" y="1410" type="curve" smooth="yes"/>
      <point x="1959" y="1788" type="line" smooth="yes"/>
      <point x="1959" y="1858"/>
      <point x="1871" y="1922"/>
      <point x="1788" y="1922" type="curve" smooth="yes"/>
      <point x="1717" y="1922"/>
      <point x="1687" y="1908"/>
      <point x="1660" y="1893" type="curve"/>
      <point x="1735" y="1893"/>
      <point x="1771" y="1825"/>
    </contour>
    <contour>
      <point x="1048" y="1067" type="curve"/>
      <point x="1021" y="1090"/>
      <point x="992" y="1104"/>
      <point x="946" y="1104" type="curve" smooth="yes"/>
      <point x="878" y="1104"/>
      <point x="827" y="1069"/>
      <point x="827" y="1010" type="curve" smooth="yes"/>
      <point x="827" y="931"/>
      <point x="912" y="878"/>
      <point x="991" y="878" type="curve" smooth="yes"/>
      <point x="1028" y="878"/>
      <point x="1092" y="891"/>
      <point x="1135" y="921" type="curve" smooth="yes"/>
      <point x="1190" y="961"/>
      <point x="1231" y="1022"/>
      <point x="1231" y="1125" type="curve" smooth="yes"/>
      <point x="1231" y="1342"/>
      <point x="1014" y="1440"/>
      <point x="817" y="1440" type="curve" smooth="yes"/>
      <point x="505" y="1440"/>
      <point x="295" y="1310"/>
      <point x="295" y="1059" type="curve" smooth="yes"/>
      <point x="295" y="741"/>
      <point x="639" y="635"/>
      <point x="889" y="551" type="curve" smooth="yes"/>
      <point x="950" y="531"/>
      <point x="1043" y="488"/>
      <point x="1043" y="454" type="curve" smooth="yes"/>
      <point x="1043" y="150" type="line"/>
      <point x="905" y="153"/>
      <point x="625" y="215"/>
      <point x="483" y="358" type="curve"/>
      <point x="483" y="612" type="line"/>
      <point x="295" y="612" type="line"/>
      <point x="295" y="0" type="line"/>
      <point x="483" y="0" type="line"/>
      <point x="483" y="200" type="line"/>
      <point x="589" y="128"/>
      <point x="878" y="0"/>
      <point x="1063" y="0" type="curve" smooth="yes"/>
      <point x="1144" y="0" type="line" smooth="yes"/>
      <point x="1185" y="0"/>
      <point x="1231" y="33"/>
      <point x="1231" y="68" type="curve" smooth="yes"/>
      <point x="1231" y="533" type="line" smooth="yes"/>
      <point x="1231" y="577"/>
      <point x="1139" y="613"/>
      <point x="1052" y="640" type="curve" smooth="yes"/>
      <point x="831" y="710"/>
      <point x="463" y="820"/>
      <point x="463" y="1039" type="curve" smooth="yes"/>
      <point x="463" y="1223"/>
      <point x="599" y="1310"/>
      <point x="797" y="1310" type="curve" smooth="yes"/>
      <point x="969" y="1310"/>
      <point x="1062" y="1238"/>
      <point x="1062" y="1148" type="curve" smooth="yes"/>
      <point x="1062" y="1110"/>
      <point x="1058" y="1084"/>
    </contour>
    <contour>
      <point x="1450" y="1236" type="curve" smooth="yes"/>
      <point x="1519" y="1236"/>
      <point x="1661" y="1131"/>
      <point x="1732" y="1075" type="curve" smooth="yes"/>
      <point x="1749" y="1062"/>
      <point x="1771" y="1045"/>
      <point x="1771" y="1020" type="curve" smooth="yes"/>
      <point x="1771" y="0" type="line"/>
      <point x="1959" y="0" type="line"/>
      <point x="1959" y="1083" type="line" smooth="yes"/>
      <point x="1959" y="1144"/>
      <point x="1923" y="1184"/>
      <point x="1862" y="1232" type="curve" smooth="yes"/>
      <point x="1804" y="1278"/>
      <point x="1578" y="1440"/>
      <point x="1506" y="1440" type="curve" smooth="yes"/>
      <point x="1436" y="1440"/>
      <point x="1351" y="1372"/>
      <point x="1185" y="1199" type="curve" smooth="yes"/>
      <point x="1078" y="1087"/>
      <point x="1194" y="1024"/>
      <point x="1228" y="1088" type="curve" smooth="yes"/>
      <point x="1260" y="1148"/>
      <point x="1396" y="1236"/>
    </contour>
  </outline>
</glyph>
<glyph name="uni179717C5.right" format="2">
  <advance width="2244"/>
  <anchor x="1271" y="0" name="L1"/>
  <anchor x="1999" y="0" name="L2"/>
  <anchor x="1271" y="1440" name="U1"/>
  <anchor x="1999" y="1922" name="U2"/>
  <anchor x="803" y="0" name="lm"/>
  <anchor x="803" y="1440" name="um"/>
  <anchor x="1541" y="1922" name="um2"/>
  <outline>
    <contour>
      <point x="803" y="1030" type="curve" smooth="yes"/>
      <point x="607" y="1030"/>
      <point x="335" y="945"/>
      <point x="335" y="845" type="curve" smooth="yes"/>
      <point x="335" y="495" type="line"/>
      <point x="205" y="482"/>
      <point x="108" y="384"/>
      <point x="108" y="270" type="curve" smooth="yes"/>
      <point x="108" y="171"/>
      <point x="186" y="31"/>
      <point x="352" y="0" type="curve"/>
      <point x="417" y="0"/>
      <point x="498" y="15"/>
      <point x="523" y="78" type="curve"/>
      <point x="523" y="827" type="line" smooth="yes"/>
      <point x="523" y="891"/>
      <point x="725" y="918"/>
      <point x="803" y="918" type="curve" smooth="yes"/>
      <point x="881" y="918"/>
      <point x="1083" y="891"/>
      <point x="1083" y="827" type="curve" smooth="yes"/>
      <point x="1083" y="0" type="line"/>
      <point x="1271" y="0" type="line"/>
      <point x="1271" y="845" type="line" smooth="yes"/>
      <point x="1271" y="945"/>
      <point x="999" y="1030"/>
    </contour>
    <contour>
      <point x="230" y="270" type="curve" smooth="yes"/>
      <point x="230" y="323"/>
      <point x="269" y="389"/>
      <point x="335" y="408" type="curve"/>
      <point x="335" y="137" type="line"/>
      <point x="284" y="159"/>
      <point x="230" y="199"/>
    </contour>
    <contour>
      <point x="1361" y="1440" type="curve" smooth="yes"/>
      <point x="1317" y="1440"/>
      <point x="1266" y="1399"/>
      <point x="1226" y="1367" type="curve" smooth="yes"/>
      <point x="1197" y="1343"/>
      <point x="1139" y="1291"/>
      <point x="1111" y="1258" type="curve"/>
      <point x="1032" y="1283"/>
      <point x="617" y="1440"/>
      <point x="553" y="1440" type="curve" smooth="yes"/>
      <point x="469" y="1440"/>
      <point x="206" y="1185"/>
      <point x="181" y="1081" type="curve" smooth="yes"/>
      <point x="180" y="1076"/>
      <point x="180" y="1055"/>
      <point x="180" y="1049" type="curve" smooth="yes"/>
      <point x="180" y="978"/>
      <point x="268" y="952"/>
      <point x="341" y="930" type="curve"/>
      <point x="502" y="1004" type="line"/>
      <point x="419" y="1020"/>
      <point x="340" y="1047"/>
      <point x="340" y="1104" type="curve" smooth="yes"/>
      <point x="340" y="1140"/>
      <point x="418" y="1217"/>
      <point x="448" y="1237" type="curve" smooth="yes"/>
      <point x="456" y="1243"/>
      <point x="472" y="1249"/>
      <point x="487" y="1249" type="curve" smooth="yes"/>
      <point x="556" y="1249"/>
      <point x="979" y="1071"/>
      <point x="1064" y="1071" type="curve" smooth="yes"/>
      <point x="1101" y="1071"/>
      <point x="1142" y="1103"/>
      <point x="1191" y="1152" type="curve" smooth="yes"/>
      <point x="1240" y="1201"/>
      <point x="1284" y="1246"/>
      <point x="1315" y="1246" type="curve" smooth="yes"/>
      <point x="1384" y="1246"/>
      <point x="1701" y="1091"/>
      <point x="1772" y="1045" type="curve" smooth="yes"/>
      <point x="1789" y="1034"/>
      <point x="1811" y="1015"/>
      <point x="1811" y="990" type="curve" smooth="yes"/>
      <point x="1811" y="0" type="line"/>
      <point x="1999" y="0" type="line"/>
      <point x="1999" y="1053" type="line" smooth="yes"/>
      <point x="1999" y="1114"/>
      <point x="1967" y="1159"/>
      <point x="1902" y="1202" type="curve" smooth="yes"/>
      <point x="1844" y="1240"/>
      <point x="1433" y="1440"/>
    </contour>
    <contour>
      <point x="1811" y="1792" type="curve"/>
      <point x="1811" y="1410" type="line" smooth="yes"/>
      <point x="1811" y="1352"/>
      <point x="1787" y="1307"/>
      <point x="1754" y="1261" type="curve"/>
      <point x="1895" y="1170" type="line"/>
      <point x="1958" y="1257"/>
      <point x="1999" y="1323"/>
      <point x="1999" y="1410" type="curve" smooth="yes"/>
      <point x="1999" y="1788" type="line" smooth="yes"/>
      <point x="1999" y="1858"/>
      <point x="1911" y="1922"/>
      <point x="1828" y="1922" type="curve" smooth="yes"/>
      <point x="1757" y="1922"/>
      <point x="1727" y="1908"/>
      <point x="1700" y="1893" type="curve"/>
      <point x="1775" y="1893"/>
      <point x="1811" y="1825"/>
    </contour>
  </outline>
</glyph>
<glyph name="uni179917C5.right" format="2">
  <advance width="2736"/>
  <anchor x="1763" y="0" name="L1"/>
  <anchor x="2491" y="0" name="L2"/>
  <anchor x="1763" y="1440" name="U1"/>
  <anchor x="2491" y="1922" name="U2"/>
  <anchor x="1369" y="0" name="lm"/>
  <anchor x="1369" y="1440" name="um"/>
  <anchor x="2033" y="1922" name="um2"/>
  <outline>
    <contour>
      <point x="1575" y="890" type="line"/>
      <point x="1575" y="194" type="line" smooth="yes"/>
      <point x="1575" y="139"/>
      <point x="1455" y="112"/>
      <point x="1369" y="112" type="curve" smooth="yes"/>
      <point x="1283" y="112"/>
      <point x="1163" y="139"/>
      <point x="1163" y="194" type="curve" smooth="yes"/>
      <point x="1163" y="950" type="line" smooth="yes"/>
      <point x="1163" y="1015"/>
      <point x="1024" y="1114"/>
      <point x="904" y="1154" type="curve" smooth="yes"/>
      <point x="902" y="1155"/>
      <point x="901" y="1156"/>
      <point x="901" y="1158" type="curve"/>
      <point x="901" y="1160" type="line"/>
      <point x="906" y="1183"/>
      <point x="921" y="1215"/>
      <point x="939" y="1227" type="curve" smooth="yes"/>
      <point x="947" y="1233"/>
      <point x="957" y="1236"/>
      <point x="967" y="1236" type="curve" smooth="yes"/>
      <point x="1036" y="1236"/>
      <point x="1069" y="1165"/>
      <point x="1154" y="1165" type="curve" smooth="yes"/>
      <point x="1245" y="1165"/>
      <point x="1264" y="1260"/>
      <point x="1295" y="1346" type="curve"/>
      <point x="1272" y="1336"/>
      <point x="1248" y="1334"/>
      <point x="1225" y="1334" type="curve" smooth="yes"/>
      <point x="1170" y="1334"/>
      <point x="1085" y="1440"/>
      <point x="1013" y="1440" type="curve" smooth="yes"/>
      <point x="929" y="1440"/>
      <point x="826" y="1185"/>
      <point x="801" y="1081" type="curve"/>
      <point x="801" y="1079" type="line"/>
      <point x="801" y="1075"/>
      <point x="803" y="1070"/>
      <point x="808" y="1069" type="curve" smooth="yes"/>
      <point x="913" y="1057"/>
      <point x="975" y="983"/>
      <point x="975" y="939" type="curve" smooth="yes"/>
      <point x="975" y="194" type="line" smooth="yes"/>
      <point x="975" y="139"/>
      <point x="815" y="112"/>
      <point x="729" y="112" type="curve" smooth="yes"/>
      <point x="643" y="112"/>
      <point x="483" y="139"/>
      <point x="483" y="194" type="curve" smooth="yes"/>
      <point x="483" y="945" type="line"/>
      <point x="613" y="958"/>
      <point x="710" y="1056"/>
      <point x="710" y="1170" type="curve" smooth="yes"/>
      <point x="710" y="1269"/>
      <point x="632" y="1409"/>
      <point x="466" y="1440" type="curve"/>
      <point x="401" y="1440"/>
      <point x="320" y="1425"/>
      <point x="295" y="1362" type="curve"/>
      <point x="295" y="187" type="line" smooth="yes"/>
      <point x="295" y="87"/>
      <point x="533" y="0"/>
      <point x="729" y="0" type="curve" smooth="yes"/>
      <point x="842" y="0"/>
      <point x="975" y="26"/>
      <point x="1063" y="72" type="curve"/>
      <point x="1138" y="26"/>
      <point x="1252" y="0"/>
      <point x="1369" y="0" type="curve" smooth="yes"/>
      <point x="1565" y="0"/>
      <point x="1763" y="87"/>
      <point x="1763" y="187" type="curve" smooth="yes"/>
      <point x="1763" y="883" type="line"/>
    </contour>
    <contour>
      <point x="588" y="1170" type="curve" smooth="yes"/>
      <point x="588" y="1117"/>
      <point x="549" y="1051"/>
      <point x="483" y="1032" type="curve"/>
      <point x="483" y="1303" type="line"/>
      <point x="534" y="1281"/>
      <point x="588" y="1241"/>
    </contour>
    <contour>
      <point x="1763" y="773" type="line"/>
      <point x="1763" y="950" type="line" smooth="yes"/>
      <point x="1763" y="1015"/>
      <point x="1624" y="1114"/>
      <point x="1504" y="1154" type="curve" smooth="yes"/>
      <point x="1502" y="1155"/>
      <point x="1500" y="1156"/>
      <point x="1500" y="1158" type="curve"/>
      <point x="1500" y="1159"/>
      <point x="1500" y="1159"/>
      <point x="1501" y="1160" type="curve"/>
      <point x="1560" y="1209"/>
      <point x="1811" y="1236"/>
      <point x="1907" y="1236" type="curve" smooth="yes"/>
      <point x="1976" y="1236"/>
      <point x="2193" y="1121"/>
      <point x="2264" y="1075" type="curve" smooth="yes"/>
      <point x="2281" y="1064"/>
      <point x="2303" y="1045"/>
      <point x="2303" y="1020" type="curve" smooth="yes"/>
      <point x="2303" y="0" type="line"/>
      <point x="2491" y="0" type="line"/>
      <point x="2491" y="1083" type="line" smooth="yes"/>
      <point x="2491" y="1144"/>
      <point x="2459" y="1189"/>
      <point x="2394" y="1232" type="curve" smooth="yes"/>
      <point x="2336" y="1270"/>
      <point x="2035" y="1440"/>
      <point x="1963" y="1440" type="curve" smooth="yes"/>
      <point x="1854" y="1440"/>
      <point x="1631" y="1397"/>
      <point x="1539" y="1302" type="curve" smooth="yes"/>
      <point x="1470" y="1231"/>
      <point x="1421" y="1165"/>
      <point x="1401" y="1081" type="curve"/>
      <point x="1401" y="1079" type="line"/>
      <point x="1401" y="1075"/>
      <point x="1403" y="1070"/>
      <point x="1408" y="1069" type="curve" smooth="yes"/>
      <point x="1513" y="1057"/>
      <point x="1575" y="983"/>
      <point x="1575" y="939" type="curve" smooth="yes"/>
      <point x="1575" y="784" type="line"/>
    </contour>
    <contour>
      <point x="2303" y="1792" type="curve"/>
      <point x="2303" y="1410" type="line" smooth="yes"/>
      <point x="2303" y="1352"/>
      <point x="2279" y="1307"/>
      <point x="2246" y="1261" type="curve"/>
      <point x="2387" y="1170" type="line"/>
      <point x="2450" y="1257"/>
      <point x="2491" y="1323"/>
      <point x="2491" y="1410" type="curve" smooth="yes"/>
      <point x="2491" y="1788" type="line" smooth="yes"/>
      <point x="2491" y="1858"/>
      <point x="2403" y="1922"/>
      <point x="2320" y="1922" type="curve" smooth="yes"/>
      <point x="2249" y="1922"/>
      <point x="2219" y="1908"/>
      <point x="2192" y="1893" type="curve"/>
      <point x="2267" y="1893"/>
      <point x="2303" y="1825"/>
    </contour>
  </outline>
</glyph>
<glyph name="uni179C.spc" format="2">
  <advance width="918"/>
  <anchor x="706" y="1793" name="U"/>
  <anchor x="523" y="0" name="lm"/>
  <anchor x="549" y="1793" name="um"/>
  <outline>
    <contour>
      <point x="673" y="78" type="curve"/>
      <point x="673" y="950" type="line" smooth="yes"/>
      <point x="673" y="1015"/>
      <point x="534" y="1114"/>
      <point x="414" y="1154" type="curve" smooth="yes"/>
      <point x="412" y="1155"/>
      <point x="411" y="1156"/>
      <point x="411" y="1158" type="curve"/>
      <point x="411" y="1160" type="line"/>
      <point x="416" y="1183"/>
      <point x="431" y="1215"/>
      <point x="449" y="1227" type="curve" smooth="yes"/>
      <point x="457" y="1233"/>
      <point x="467" y="1236"/>
      <point x="477" y="1236" type="curve" smooth="yes"/>
      <point x="546" y="1236"/>
      <point x="579" y="1165"/>
      <point x="664" y="1165" type="curve" smooth="yes"/>
      <point x="762" y="1165"/>
      <point x="846" y="1257"/>
      <point x="846" y="1453" type="curve" smooth="yes"/>
      <point x="846" y="1610"/>
      <point x="748" y="1793"/>
      <point x="548" y="1793" type="curve" smooth="yes"/>
      <point x="480" y="1793"/>
      <point x="441" y="1763"/>
      <point x="441" y="1713" type="curve" smooth="yes"/>
      <point x="441" y="1650"/>
      <point x="485" y="1616"/>
      <point x="571" y="1589" type="curve" smooth="yes"/>
      <point x="665" y="1560"/>
      <point x="757" y="1488"/>
      <point x="757" y="1390" type="curve" smooth="yes"/>
      <point x="757" y="1354"/>
      <point x="752" y="1334"/>
      <point x="735" y="1334" type="curve" smooth="yes"/>
      <point x="680" y="1334"/>
      <point x="595" y="1440"/>
      <point x="523" y="1440" type="curve" smooth="yes"/>
      <point x="439" y="1440"/>
      <point x="336" y="1185"/>
      <point x="311" y="1081" type="curve"/>
      <point x="311" y="1079" type="line"/>
      <point x="311" y="1075"/>
      <point x="313" y="1070"/>
      <point x="318" y="1069" type="curve" smooth="yes"/>
      <point x="423" y="1057"/>
      <point x="485" y="983"/>
      <point x="485" y="939" type="curve" smooth="yes"/>
      <point x="485" y="495" type="line"/>
      <point x="355" y="482"/>
      <point x="258" y="384"/>
      <point x="258" y="270" type="curve" smooth="yes"/>
      <point x="258" y="171"/>
      <point x="336" y="31"/>
      <point x="502" y="0" type="curve"/>
      <point x="567" y="0"/>
      <point x="648" y="15"/>
    </contour>
    <contour>
      <point x="380" y="270" type="curve" smooth="yes"/>
      <point x="380" y="323"/>
      <point x="419" y="389"/>
      <point x="485" y="408" type="curve"/>
      <point x="485" y="137" type="line"/>
      <point x="434" y="159"/>
      <point x="380" y="199"/>
    </contour>
  </outline>
</glyph>
<glyph name="uni17CA.narrow" format="2">
  <guideline x="-778" y="0" angle="90"/>
  <anchor x="-245" y="1842" name="U"/>
  <anchor x="-245" y="1440" name="_U"/>
  <anchor x="-389" y="1842" name="um"/>
  <outline>
    <contour>
      <point x="-481" y="1546" type="curve" smooth="yes"/>
      <point x="-444" y="1546"/>
      <point x="-413" y="1570"/>
      <point x="-394" y="1594" type="curve" smooth="yes"/>
      <point x="-370" y="1623"/>
      <point x="-341" y="1648"/>
      <point x="-310" y="1648" type="curve" smooth="yes"/>
      <point x="-261" y="1648"/>
      <point x="-208" y="1546"/>
      <point x="-143" y="1546" type="curve" smooth="yes"/>
      <point x="-62" y="1546"/>
      <point x="-33" y="1641"/>
      <point x="-2" y="1727" type="curve"/>
      <point x="-25" y="1717"/>
      <point x="-49" y="1715"/>
      <point x="-72" y="1715" type="curve" smooth="yes"/>
      <point x="-127" y="1715"/>
      <point x="-210" y="1842"/>
      <point x="-272" y="1842" type="curve" smooth="yes"/>
      <point x="-296" y="1842"/>
      <point x="-325" y="1825"/>
      <point x="-355" y="1799" type="curve" smooth="yes"/>
      <point x="-383" y="1774"/>
      <point x="-406" y="1753"/>
      <point x="-434" y="1720" type="curve"/>
      <point x="-493" y="1775"/>
      <point x="-568" y="1842"/>
      <point x="-622" y="1842" type="curve" smooth="yes"/>
      <point x="-706" y="1842"/>
      <point x="-801" y="1696"/>
      <point x="-832" y="1624" type="curve" smooth="yes"/>
      <point x="-835" y="1617"/>
      <point x="-835" y="1609"/>
      <point x="-835" y="1603" type="curve" smooth="yes"/>
      <point x="-835" y="1582"/>
      <point x="-824" y="1554"/>
      <point x="-791" y="1542" type="curve"/>
      <point x="-670" y="1566" type="line"/>
      <point x="-700" y="1566"/>
      <point x="-711" y="1585"/>
      <point x="-711" y="1609" type="curve" smooth="yes"/>
      <point x="-711" y="1629"/>
      <point x="-699" y="1648"/>
      <point x="-683" y="1648" type="curve" smooth="yes"/>
      <point x="-634" y="1648"/>
      <point x="-546" y="1546"/>
    </contour>
  </outline>
</glyph>
<glyph name="uni17D2178317C5.right" format="2">
  <advance width="1456"/>
  <anchor x="483" y="-710" name="L1"/>
  <anchor x="1211" y="0" name="L2"/>
  <anchor x="1211" y="1922" name="U2"/>
  <anchor x="753" y="1922" name="um"/>
  <outline>
    <contour>
      <point x="-760" y="-268" type="curve" smooth="yes"/>
      <point x="-760" y="-250"/>
      <point x="-746" y="-242"/>
      <point x="-724" y="-235" type="curve"/>
      <point x="-724" y="-296" type="line"/>
      <point x="-750" y="-293"/>
      <point x="-760" y="-281"/>
    </contour>
    <contour>
      <point x="1023" y="1792" type="curve"/>
      <point x="1023" y="1410" type="line" smooth="yes"/>
      <point x="1023" y="1352"/>
      <point x="999" y="1307"/>
      <point x="966" y="1261" type="curve"/>
      <point x="1107" y="1170" type="line"/>
      <point x="1170" y="1257"/>
      <point x="1211" y="1323"/>
      <point x="1211" y="1410" type="curve" smooth="yes"/>
      <point x="1211" y="1788" type="line" smooth="yes"/>
      <point x="1211" y="1858"/>
      <point x="1123" y="1922"/>
      <point x="1040" y="1922" type="curve" smooth="yes"/>
      <point x="969" y="1922"/>
      <point x="939" y="1908"/>
      <point x="912" y="1893" type="curve"/>
      <point x="987" y="1893"/>
      <point x="1023" y="1825"/>
    </contour>
    <contour>
      <point x="-217" y="-481" type="line"/>
      <point x="-217" y="-515" type="line" smooth="yes"/>
      <point x="-217" y="-564"/>
      <point x="-291" y="-598"/>
      <point x="-389" y="-598" type="curve" smooth="yes"/>
      <point x="-488" y="-598"/>
      <point x="-561" y="-564"/>
      <point x="-561" y="-515" type="curve" smooth="yes"/>
      <point x="-561" y="-229" type="line"/>
      <point x="-573" y="-167"/>
      <point x="-646" y="-150"/>
      <point x="-714" y="-150" type="curve"/>
      <point x="-796" y="-167"/>
      <point x="-860" y="-189"/>
      <point x="-860" y="-265" type="curve" smooth="yes"/>
      <point x="-860" y="-306"/>
      <point x="-821" y="-371"/>
      <point x="-729" y="-374" type="curve"/>
      <point x="-729" y="-523" type="line" smooth="yes"/>
      <point x="-729" y="-623"/>
      <point x="-585" y="-710"/>
      <point x="-389" y="-710" type="curve" smooth="yes"/>
      <point x="-280" y="-710"/>
      <point x="-193" y="-685"/>
      <point x="-133" y="-638" type="curve"/>
      <point x="-50" y="-685"/>
      <point x="10" y="-710"/>
      <point x="123" y="-710" type="curve" smooth="yes"/>
      <point x="319" y="-710"/>
      <point x="483" y="-623"/>
      <point x="483" y="-523" type="curve" smooth="yes"/>
      <point x="483" y="867" type="line"/>
      <point x="295" y="864" type="line"/>
      <point x="295" y="-515" type="line" smooth="yes"/>
      <point x="295" y="-564"/>
      <point x="222" y="-598"/>
      <point x="123" y="-598" type="curve" smooth="yes"/>
      <point x="25" y="-598"/>
      <point x="-49" y="-564"/>
      <point x="-49" y="-515" type="curve" smooth="yes"/>
      <point x="-49" y="-490" type="line"/>
    </contour>
    <contour>
      <point x="-49" y="-496" type="line"/>
      <point x="-49" y="-467" type="line" smooth="yes"/>
      <point x="-49" y="-425"/>
      <point x="-160" y="-360"/>
      <point x="-248" y="-335" type="curve"/>
      <point x="-249" y="-335"/>
      <point x="-250" y="-334"/>
      <point x="-250" y="-332" type="curve"/>
      <point x="-250" y="-330" type="line"/>
      <point x="-246" y="-316"/>
      <point x="-241" y="-305"/>
      <point x="-227" y="-296" type="curve" smooth="yes"/>
      <point x="-221" y="-293"/>
      <point x="-213" y="-291"/>
      <point x="-207" y="-291" type="curve" smooth="yes"/>
      <point x="-156" y="-291"/>
      <point x="-132" y="-338"/>
      <point x="-70" y="-338" type="curve" smooth="yes"/>
      <point x="-3" y="-338"/>
      <point x="10" y="-266"/>
      <point x="34" y="-211" type="curve"/>
      <point x="17" y="-217"/>
      <point x="-1" y="-217"/>
      <point x="-17" y="-217" type="curve" smooth="yes"/>
      <point x="-58" y="-217"/>
      <point x="-120" y="-150"/>
      <point x="-173" y="-150" type="curve" smooth="yes"/>
      <point x="-234" y="-150"/>
      <point x="-310" y="-315"/>
      <point x="-328" y="-382" type="curve"/>
      <point x="-328" y="-384" type="line"/>
      <point x="-328" y="-387"/>
      <point x="-326" y="-389"/>
      <point x="-322" y="-389" type="curve"/>
      <point x="-246" y="-397"/>
      <point x="-217" y="-446"/>
      <point x="-217" y="-473" type="curve" smooth="yes"/>
      <point x="-217" y="-489" type="line"/>
    </contour>
    <contour>
      <point x="483" y="773" type="line"/>
      <point x="483" y="950" type="line" smooth="yes"/>
      <point x="483" y="1015"/>
      <point x="344" y="1114"/>
      <point x="224" y="1154" type="curve" smooth="yes"/>
      <point x="222" y="1155"/>
      <point x="220" y="1156"/>
      <point x="220" y="1158" type="curve"/>
      <point x="220" y="1159"/>
      <point x="220" y="1159"/>
      <point x="221" y="1160" type="curve"/>
      <point x="280" y="1209"/>
      <point x="501" y="1236"/>
      <point x="597" y="1236" type="curve" smooth="yes"/>
      <point x="666" y="1236"/>
      <point x="913" y="1121"/>
      <point x="984" y="1075" type="curve" smooth="yes"/>
      <point x="1001" y="1064"/>
      <point x="1023" y="1045"/>
      <point x="1023" y="1020" type="curve" smooth="yes"/>
      <point x="1023" y="0" type="line"/>
      <point x="1211" y="0" type="line"/>
      <point x="1211" y="1083" type="line" smooth="yes"/>
      <point x="1211" y="1144"/>
      <point x="1179" y="1189"/>
      <point x="1114" y="1232" type="curve" smooth="yes"/>
      <point x="1056" y="1270"/>
      <point x="725" y="1440"/>
      <point x="653" y="1440" type="curve" smooth="yes"/>
      <point x="544" y="1440"/>
      <point x="351" y="1397"/>
      <point x="259" y="1302" type="curve" smooth="yes"/>
      <point x="190" y="1231"/>
      <point x="141" y="1165"/>
      <point x="121" y="1081" type="curve"/>
      <point x="121" y="1079" type="line"/>
      <point x="121" y="1075"/>
      <point x="123" y="1070"/>
      <point x="128" y="1069" type="curve" smooth="yes"/>
      <point x="233" y="1057"/>
      <point x="295" y="983"/>
      <point x="295" y="939" type="curve" smooth="yes"/>
      <point x="295" y="784" type="line"/>
    </contour>
  </outline>
</glyph>
<glyph name="uni17D2178D.low" format="2">
  <advance width="728"/>
  <guideline y="-1026"/>
  <guideline y="-1112"/>
  <guideline x="-118"/>
  <guideline x="1512"/>
  <anchor x="483" y="-1225" name="L"/>
  <anchor x="483" y="1440" name="U"/>
  <anchor x="389" y="1440" name="um"/>
  <outline>
    <contour>
      <point x="295" y="896" type="line"/>
      <point x="295" y="-1017" type="line" smooth="yes"/>
      <point x="295" y="-1071"/>
      <point x="206" y="-1113"/>
      <point x="142" y="-1113" type="curve" smooth="yes"/>
      <point x="25" y="-1113"/>
      <point x="8" y="-1035"/>
      <point x="-118" y="-1026" type="curve"/>
      <point x="-118" y="-992" type="line" smooth="yes"/>
      <point x="-118" y="-937"/>
      <point x="-228" y="-789"/>
      <point x="-330" y="-789" type="curve" smooth="yes"/>
      <point x="-391" y="-789"/>
      <point x="-423" y="-821"/>
      <point x="-453" y="-859" type="curve" smooth="yes"/>
      <point x="-472" y="-882"/>
      <point x="-501" y="-910"/>
      <point x="-512" y="-910" type="curve" smooth="yes"/>
      <point x="-523" y="-910"/>
      <point x="-552" y="-882"/>
      <point x="-571" y="-859" type="curve" smooth="yes"/>
      <point x="-601" y="-821"/>
      <point x="-633" y="-789"/>
      <point x="-694" y="-789" type="curve" smooth="yes"/>
      <point x="-796" y="-789"/>
      <point x="-906" y="-937"/>
      <point x="-906" y="-992" type="curve" smooth="yes"/>
      <point x="-906" y="-1155" type="line"/>
      <point x="-895" y="-1209"/>
      <point x="-820" y="-1225"/>
      <point x="-753" y="-1225" type="curve"/>
      <point x="-670" y="-1209"/>
      <point x="-605" y="-1191"/>
      <point x="-605" y="-1123" type="curve" smooth="yes"/>
      <point x="-605" y="-1087"/>
      <point x="-644" y="-1030"/>
      <point x="-738" y="-1027" type="curve"/>
      <point x="-738" y="-1026" type="line"/>
      <point x="-738" y="-982"/>
      <point x="-710" y="-909"/>
      <point x="-686" y="-909" type="curve" smooth="yes"/>
      <point x="-675" y="-909"/>
      <point x="-653" y="-936"/>
      <point x="-621" y="-967" type="curve" smooth="yes"/>
      <point x="-587" y="-1000"/>
      <point x="-544" y="-1030"/>
      <point x="-512" y="-1030" type="curve" smooth="yes"/>
      <point x="-480" y="-1030"/>
      <point x="-436" y="-1000"/>
      <point x="-403" y="-967" type="curve" smooth="yes"/>
      <point x="-371" y="-936"/>
      <point x="-349" y="-909"/>
      <point x="-338" y="-909" type="curve" smooth="yes"/>
      <point x="-314" y="-909"/>
      <point x="-286" y="-982"/>
      <point x="-286" y="-1026" type="curve"/>
      <point x="-379" y="-1029"/>
      <point x="-415" y="-1086"/>
      <point x="-415" y="-1122" type="curve" smooth="yes"/>
      <point x="-415" y="-1190"/>
      <point x="-352" y="-1208"/>
      <point x="-270" y="-1225" type="curve"/>
      <point x="-204" y="-1225"/>
      <point x="-131" y="-1208"/>
      <point x="-118" y="-1155" type="curve"/>
      <point x="-118" y="-1091" type="line"/>
      <point x="-39" y="-1108"/>
      <point x="25" y="-1225"/>
      <point x="174" y="-1225" type="curve" smooth="yes"/>
      <point x="356" y="-1225"/>
      <point x="483" y="-1142"/>
      <point x="483" y="-1038" type="curve" smooth="yes"/>
      <point x="483" y="905" type="line"/>
    </contour>
    <contour>
      <point x="-325" y="-1121" type="curve" smooth="yes"/>
      <point x="-325" y="-1109"/>
      <point x="-311" y="-1099"/>
      <point x="-286" y="-1096" type="curve"/>
      <point x="-286" y="-1151" type="line"/>
      <point x="-308" y="-1146"/>
      <point x="-325" y="-1137"/>
    </contour>
    <contour>
      <point x="-699" y="-1122" type="curve" smooth="yes"/>
      <point x="-699" y="-1138"/>
      <point x="-716" y="-1146"/>
      <point x="-738" y="-1151" type="curve"/>
      <point x="-738" y="-1097" type="line"/>
      <point x="-712" y="-1100"/>
      <point x="-699" y="-1110"/>
    </contour>
    <contour>
      <point x="483" y="688" type="line"/>
      <point x="483" y="950" type="line" smooth="yes"/>
      <point x="483" y="1015"/>
      <point x="344" y="1114"/>
      <point x="224" y="1154" type="curve" smooth="yes"/>
      <point x="222" y="1155"/>
      <point x="221" y="1156"/>
      <point x="221" y="1158" type="curve"/>
      <point x="221" y="1160" type="line"/>
      <point x="226" y="1183"/>
      <point x="241" y="1215"/>
      <point x="259" y="1227" type="curve" smooth="yes"/>
      <point x="267" y="1233"/>
      <point x="277" y="1236"/>
      <point x="287" y="1236" type="curve" smooth="yes"/>
      <point x="356" y="1236"/>
      <point x="389" y="1165"/>
      <point x="474" y="1165" type="curve" smooth="yes"/>
      <point x="565" y="1165"/>
      <point x="584" y="1260"/>
      <point x="615" y="1346" type="curve"/>
      <point x="592" y="1336"/>
      <point x="568" y="1334"/>
      <point x="545" y="1334" type="curve" smooth="yes"/>
      <point x="490" y="1334"/>
      <point x="405" y="1440"/>
      <point x="333" y="1440" type="curve" smooth="yes"/>
      <point x="249" y="1440"/>
      <point x="146" y="1185"/>
      <point x="121" y="1081" type="curve"/>
      <point x="121" y="1079" type="line"/>
      <point x="121" y="1075"/>
      <point x="123" y="1070"/>
      <point x="128" y="1069" type="curve" smooth="yes"/>
      <point x="233" y="1057"/>
      <point x="295" y="983"/>
      <point x="295" y="939" type="curve" smooth="yes"/>
      <point x="295" y="688" type="line"/>
    </contour>
  </outline>
</glyph>
<glyph name="uni17D217A1.alt" format="2">
  <guideline y="-148"/>
  <guideline y="-1225"/>
  <guideline x="-739"/>
  <guideline x="-1220"/>
  <anchor x="-245" y="-1225" name="L"/>
  <anchor x="-245" y="0" name="_L"/>
  <anchor x="-739" y="0" name="_um"/>
  <anchor x="-555" y="-1225" name="um"/>
  <outline>
    <contour>
      <point x="-375" y="-432" type="line"/>
      <point x="-375" y="-1120" type="line" smooth="yes"/>
      <point x="-375" y="-1141"/>
      <point x="-383" y="-1152"/>
      <point x="-398" y="-1152" type="curve" smooth="yes"/>
      <point x="-408" y="-1152"/>
      <point x="-417" y="-1148"/>
      <point x="-526" y="-1072" type="curve" smooth="yes"/>
      <point x="-543" y="-1060"/>
      <point x="-551" y="-1055"/>
      <point x="-569" y="-1055" type="curve" smooth="yes"/>
      <point x="-586" y="-1055"/>
      <point x="-594" y="-1060"/>
      <point x="-610" y="-1072" type="curve"/>
      <point x="-721" y="-1148"/>
      <point x="-730" y="-1152"/>
      <point x="-740" y="-1152" type="curve" smooth="yes"/>
      <point x="-755" y="-1152"/>
      <point x="-763" y="-1141"/>
      <point x="-763" y="-1120" type="curve" smooth="yes"/>
      <point x="-763" y="-990" type="line"/>
      <point x="-783" y="-958"/>
      <point x="-836" y="-952"/>
      <point x="-883" y="-952" type="curve"/>
      <point x="-942" y="-960"/>
      <point x="-970" y="-992"/>
      <point x="-970" y="-1012" type="curve" smooth="yes"/>
      <point x="-970" y="-1039"/>
      <point x="-940" y="-1057"/>
      <point x="-893" y="-1061" type="curve"/>
      <point x="-893" y="-1192" type="line" smooth="yes"/>
      <point x="-893" y="-1209"/>
      <point x="-863" y="-1225"/>
      <point x="-834" y="-1225" type="curve" smooth="yes"/>
      <point x="-777" y="-1225" type="line" smooth="yes"/>
      <point x="-720" y="-1225"/>
      <point x="-654" y="-1190"/>
      <point x="-613" y="-1161" type="curve" smooth="yes"/>
      <point x="-596" y="-1149"/>
      <point x="-571" y="-1132"/>
      <point x="-569" y="-1132" type="curve"/>
      <point x="-567" y="-1132"/>
      <point x="-541" y="-1149"/>
      <point x="-524" y="-1161" type="curve" smooth="yes"/>
      <point x="-482" y="-1190"/>
      <point x="-418" y="-1225"/>
      <point x="-360" y="-1225" type="curve" smooth="yes"/>
      <point x="-304" y="-1225" type="line" smooth="yes"/>
      <point x="-274" y="-1225"/>
      <point x="-245" y="-1209"/>
      <point x="-245" y="-1192" type="curve" smooth="yes"/>
      <point x="-245" y="-427" type="line"/>
    </contour>
    <contour>
      <point x="-871" y="-633" type="curve"/>
      <point x="-871" y="-774" type="line" smooth="yes"/>
      <point x="-871" y="-801"/>
      <point x="-892" y="-824"/>
      <point x="-935" y="-824" type="curve" smooth="yes"/>
      <point x="-980" y="-824"/>
      <point x="-1001" y="-801"/>
      <point x="-1001" y="-774" type="curve" smooth="yes"/>
      <point x="-1001" y="-659" type="line"/>
      <point x="-1131" y="-659" type="line"/>
      <point x="-1131" y="-772" type="line" smooth="yes"/>
      <point x="-1131" y="-821"/>
      <point x="-1078" y="-878"/>
      <point x="-935" y="-878" type="curve" smooth="yes"/>
      <point x="-794" y="-878"/>
      <point x="-741" y="-821"/>
      <point x="-741" y="-772" type="curve" smooth="yes"/>
      <point x="-741" y="-633" type="line"/>
      <point x="-620" y="-632"/>
      <point x="-559" y="-582"/>
      <point x="-559" y="-532" type="curve" smooth="yes"/>
      <point x="-559" y="-479"/>
      <point x="-631" y="-441"/>
      <point x="-714" y="-441" type="curve" smooth="yes"/>
      <point x="-817" y="-441"/>
      <point x="-871" y="-486"/>
      <point x="-871" y="-560" type="curve"/>
      <point x="-1004" y="-556"/>
      <point x="-1090" y="-479"/>
      <point x="-1090" y="-394" type="curve" smooth="yes"/>
      <point x="-1090" y="-306"/>
      <point x="-1023" y="-238"/>
      <point x="-845" y="-238" type="curve" smooth="yes"/>
      <point x="-733" y="-238"/>
      <point x="-688" y="-268"/>
      <point x="-688" y="-288" type="curve" smooth="yes"/>
      <point x="-688" y="-303"/>
      <point x="-690" y="-308"/>
      <point x="-698" y="-314" type="curve"/>
      <point x="-717" y="-302"/>
      <point x="-736" y="-296"/>
      <point x="-768" y="-296" type="curve" smooth="yes"/>
      <point x="-815" y="-296"/>
      <point x="-851" y="-313"/>
      <point x="-851" y="-342" type="curve" smooth="yes"/>
      <point x="-851" y="-380"/>
      <point x="-792" y="-406"/>
      <point x="-737" y="-406" type="curve" smooth="yes"/>
      <point x="-711" y="-406"/>
      <point x="-667" y="-400"/>
      <point x="-638" y="-385" type="curve" smooth="yes"/>
      <point x="-599" y="-365"/>
      <point x="-571" y="-338"/>
      <point x="-571" y="-298" type="curve" smooth="yes"/>
      <point x="-571" y="-234"/>
      <point x="-639" y="-175"/>
      <point x="-845" y="-175" type="curve" smooth="yes"/>
      <point x="-1090" y="-175"/>
      <point x="-1220" y="-265"/>
      <point x="-1220" y="-394" type="curve" smooth="yes"/>
      <point x="-1220" y="-531"/>
      <point x="-1066" y="-629"/>
    </contour>
    <contour>
      <point x="-741" y="-536" type="line" smooth="yes"/>
      <point x="-741" y="-515"/>
      <point x="-732" y="-504"/>
      <point x="-713" y="-504" type="curve" smooth="yes"/>
      <point x="-694" y="-504"/>
      <point x="-683" y="-513"/>
      <point x="-683" y="-532" type="curve" smooth="yes"/>
      <point x="-683" y="-549"/>
      <point x="-701" y="-560"/>
      <point x="-717" y="-560" type="curve" smooth="yes"/>
      <point x="-741" y="-560" type="line"/>
    </contour>
    <contour>
      <point x="-245" y="-479" type="line"/>
      <point x="-245" y="-414" type="line" smooth="yes"/>
      <point x="-245" y="-383"/>
      <point x="-341" y="-334"/>
      <point x="-424" y="-315" type="curve"/>
      <point x="-425" y="-314"/>
      <point x="-426" y="-314"/>
      <point x="-426" y="-313" type="curve"/>
      <point x="-426" y="-313"/>
      <point x="-426" y="-312"/>
      <point x="-425" y="-312" type="curve"/>
      <point x="-422" y="-301"/>
      <point x="-412" y="-285"/>
      <point x="-399" y="-279" type="curve" smooth="yes"/>
      <point x="-394" y="-276"/>
      <point x="-387" y="-275"/>
      <point x="-381" y="-275" type="curve" smooth="yes"/>
      <point x="-332" y="-275"/>
      <point x="-309" y="-309"/>
      <point x="-250" y="-309" type="curve" smooth="yes"/>
      <point x="-188" y="-309"/>
      <point x="-175" y="-263"/>
      <point x="-153" y="-221" type="curve"/>
      <point x="-169" y="-226"/>
      <point x="-186" y="-227"/>
      <point x="-201" y="-227" type="curve" smooth="yes"/>
      <point x="-239" y="-227"/>
      <point x="-299" y="-175"/>
      <point x="-349" y="-175" type="curve" smooth="yes"/>
      <point x="-407" y="-175"/>
      <point x="-478" y="-300"/>
      <point x="-496" y="-350" type="curve"/>
      <point x="-496" y="-353"/>
      <point x="-494" y="-356"/>
      <point x="-490" y="-356" type="curve"/>
      <point x="-418" y="-362"/>
      <point x="-375" y="-398"/>
      <point x="-375" y="-420" type="curve" smooth="yes"/>
      <point x="-375" y="-479" type="line"/>
    </contour>
  </outline>
</glyph>
<glyph name="uni17D217A2.low" format="2">
  <guideline y="-1225"/>
  <guideline x="-162"/>
  <anchor x="-245" y="-1225" name="L"/>
  <anchor x="-245" y="-710" name="_L"/>
  <anchor x="-582" y="-710" name="_um"/>
  <anchor x="-582" y="-1225" name="um"/>
  <outline>
    <contour>
      <point x="-919" y="-1051" type="line"/>
      <point x="-1012" y="-1053"/>
      <point x="-1050" y="-1104"/>
      <point x="-1050" y="-1136" type="curve" smooth="yes"/>
      <point x="-1050" y="-1195"/>
      <point x="-986" y="-1210"/>
      <point x="-903" y="-1225" type="curve"/>
      <point x="-835" y="-1225"/>
      <point x="-762" y="-1211"/>
      <point x="-751" y="-1164" type="curve"/>
      <point x="-751" y="-1069" type="line"/>
      <point x="-492" y="-1069" type="line"/>
      <point x="-528" y="-1087"/>
      <point x="-544" y="-1115"/>
      <point x="-544" y="-1136" type="curve" smooth="yes"/>
      <point x="-544" y="-1195"/>
      <point x="-480" y="-1210"/>
      <point x="-397" y="-1225" type="curve"/>
      <point x="-329" y="-1225"/>
      <point x="-256" y="-1211"/>
      <point x="-245" y="-1164" type="curve"/>
      <point x="-245" y="-1020" type="line"/>
      <point x="-458" y="-995" type="line"/>
      <point x="-759" y="-995" type="line"/>
      <point x="-919" y="-1045" type="line"/>
    </contour>
    <contour>
      <point x="-956" y="-1133" type="curve" smooth="yes"/>
      <point x="-956" y="-1123"/>
      <point x="-944" y="-1114"/>
      <point x="-919" y="-1112" type="curve"/>
      <point x="-919" y="-1158" type="line"/>
      <point x="-940" y="-1154"/>
      <point x="-956" y="-1147"/>
    </contour>
    <contour>
      <point x="-450" y="-1133" type="curve" smooth="yes"/>
      <point x="-450" y="-1123"/>
      <point x="-438" y="-1114"/>
      <point x="-413" y="-1112" type="curve"/>
      <point x="-413" y="-1158" type="line"/>
      <point x="-434" y="-1154"/>
      <point x="-450" y="-1147"/>
    </contour>
    <contour>
      <point x="-245" y="-1025" type="line"/>
      <point x="-245" y="-988" type="line" smooth="yes"/>
      <point x="-245" y="-973"/>
      <point x="-356" y="-941"/>
      <point x="-444" y="-923" type="curve"/>
      <point x="-445" y="-923"/>
      <point x="-446" y="-922"/>
      <point x="-446" y="-921" type="curve"/>
      <point x="-446" y="-919" type="line"/>
      <point x="-442" y="-909"/>
      <point x="-437" y="-901"/>
      <point x="-423" y="-895" type="curve" smooth="yes"/>
      <point x="-417" y="-893"/>
      <point x="-409" y="-891"/>
      <point x="-403" y="-891" type="curve" smooth="yes"/>
      <point x="-352" y="-891"/>
      <point x="-328" y="-925"/>
      <point x="-266" y="-925" type="curve" smooth="yes"/>
      <point x="-199" y="-925"/>
      <point x="-186" y="-873"/>
      <point x="-162" y="-834" type="curve"/>
      <point x="-179" y="-838"/>
      <point x="-197" y="-838"/>
      <point x="-213" y="-838" type="curve" smooth="yes"/>
      <point x="-254" y="-838"/>
      <point x="-316" y="-790"/>
      <point x="-369" y="-790" type="curve" smooth="yes"/>
      <point x="-430" y="-790"/>
      <point x="-506" y="-908"/>
      <point x="-524" y="-956" type="curve"/>
      <point x="-524" y="-957" type="line"/>
      <point x="-524" y="-959"/>
      <point x="-522" y="-961"/>
      <point x="-518" y="-962" type="curve"/>
      <point x="-472" y="-967"/>
      <point x="-448" y="-1002"/>
      <point x="-448" y="-1021" type="curve" smooth="yes"/>
      <point x="-448" y="-1033" type="line"/>
    </contour>
    <contour>
      <point x="-759" y="-1009" type="line"/>
      <point x="-759" y="-988" type="line" smooth="yes"/>
      <point x="-759" y="-973"/>
      <point x="-862" y="-941"/>
      <point x="-950" y="-923" type="curve"/>
      <point x="-951" y="-923"/>
      <point x="-952" y="-922"/>
      <point x="-952" y="-921" type="curve"/>
      <point x="-952" y="-919" type="line"/>
      <point x="-948" y="-909"/>
      <point x="-943" y="-901"/>
      <point x="-929" y="-895" type="curve" smooth="yes"/>
      <point x="-923" y="-893"/>
      <point x="-915" y="-891"/>
      <point x="-909" y="-891" type="curve" smooth="yes"/>
      <point x="-858" y="-891"/>
      <point x="-834" y="-925"/>
      <point x="-772" y="-925" type="curve" smooth="yes"/>
      <point x="-705" y="-925"/>
      <point x="-692" y="-873"/>
      <point x="-668" y="-834" type="curve"/>
      <point x="-685" y="-838"/>
      <point x="-703" y="-838"/>
      <point x="-719" y="-838" type="curve" smooth="yes"/>
      <point x="-760" y="-838"/>
      <point x="-822" y="-790"/>
      <point x="-875" y="-790" type="curve" smooth="yes"/>
      <point x="-936" y="-790"/>
      <point x="-1012" y="-908"/>
      <point x="-1030" y="-956" type="curve"/>
      <point x="-1030" y="-957" type="line"/>
      <point x="-1030" y="-959"/>
      <point x="-1028" y="-962"/>
      <point x="-1024" y="-962" type="curve"/>
      <point x="-948" y="-967"/>
      <point x="-919" y="-1002"/>
      <point x="-919" y="-1021" type="curve" smooth="yes"/>
      <point x="-919" y="-1049" type="line"/>
    </contour>
  </outline>
</glyph>
<glyph name="uni17D217AB" format="2">
  <guideline x="-945"/>
  <anchor x="-245" y="-1225" name="L"/>
  <anchor x="-245" y="0" name="_L"/>
  <anchor x="-595" y="0" name="_lm"/>
  <anchor x="-595" y="-1225" name="lm"/>
  <outline>
    <contour>
      <point x="-483" y="-1018" type="curve" smooth="yes"/>
      <point x="-483" y="-1059"/>
      <point x="-435" y="-1083"/>
      <point x="-394" y="-1086" type="curve"/>
      <point x="-394" y="-1102" type="line" smooth="yes"/>
      <point x="-394" y="-1138"/>
      <point x="-435" y="-1154"/>
      <point x="-467" y="-1154" type="curve" smooth="yes"/>
      <point x="-521" y="-1154"/>
      <point x="-569" y="-1113"/>
      <point x="-620" y="-1064" type="curve"/>
      <point x="-699" y="-991"/>
      <point x="-744" y="-967"/>
      <point x="-854" y="-967" type="curve" smooth="yes"/>
      <point x="-995" y="-967"/>
      <point x="-1045" y="-1079"/>
      <point x="-1045" y="-1104" type="curve"/>
      <point x="-986" y="-1055"/>
      <point x="-945" y="-1033"/>
      <point x="-886" y="-1033" type="curve" smooth="yes"/>
      <point x="-834" y="-1033"/>
      <point x="-749" y="-1093"/>
      <point x="-705" y="-1136" type="curve"/>
      <point x="-651" y="-1184"/>
      <point x="-586" y="-1225"/>
      <point x="-475" y="-1225" type="curve" smooth="yes"/>
      <point x="-312" y="-1225"/>
      <point x="-245" y="-1152"/>
      <point x="-245" y="-1043" type="curve" smooth="yes"/>
      <point x="-245" y="-982"/>
      <point x="-317" y="-950"/>
      <point x="-379" y="-950" type="curve" smooth="yes"/>
      <point x="-434" y="-950"/>
      <point x="-483" y="-980"/>
    </contour>
    <contour>
      <point x="-596" y="-791" type="curve" smooth="yes"/>
      <point x="-655" y="-791"/>
      <point x="-804" y="-772"/>
      <point x="-804" y="-734" type="curve"/>
      <point x="-804" y="-446" type="line" smooth="yes"/>
      <point x="-804" y="-406"/>
      <point x="-908" y="-347"/>
      <point x="-999" y="-322" type="curve"/>
      <point x="-1000" y="-322"/>
      <point x="-1001" y="-321"/>
      <point x="-1001" y="-320" type="curve"/>
      <point x="-1001" y="-319" type="line"/>
      <point x="-997" y="-305"/>
      <point x="-985" y="-285"/>
      <point x="-972" y="-279" type="curve"/>
      <point x="-966" y="-275"/>
      <point x="-958" y="-273"/>
      <point x="-951" y="-273" type="curve" smooth="yes"/>
      <point x="-900" y="-273"/>
      <point x="-875" y="-316"/>
      <point x="-811" y="-316" type="curve" smooth="yes"/>
      <point x="-743" y="-316"/>
      <point x="-730" y="-258"/>
      <point x="-707" y="-207" type="curve"/>
      <point x="-723" y="-213"/>
      <point x="-742" y="-214"/>
      <point x="-758" y="-214" type="curve" smooth="yes"/>
      <point x="-799" y="-214"/>
      <point x="-864" y="-150"/>
      <point x="-916" y="-150" type="curve" smooth="yes"/>
      <point x="-980" y="-150"/>
      <point x="-1057" y="-304"/>
      <point x="-1076" y="-366" type="curve"/>
      <point x="-1076" y="-369"/>
      <point x="-1075" y="-373"/>
      <point x="-1070" y="-373" type="curve"/>
      <point x="-992" y="-381"/>
      <point x="-945" y="-426"/>
      <point x="-945" y="-454" type="curve" smooth="yes"/>
      <point x="-945" y="-745" type="line" smooth="yes"/>
      <point x="-945" y="-806"/>
      <point x="-742" y="-859"/>
      <point x="-596" y="-859" type="curve" smooth="yes"/>
      <point x="-449" y="-859"/>
      <point x="-245" y="-806"/>
      <point x="-245" y="-745" type="curve" smooth="yes"/>
      <point x="-245" y="-446" type="line" smooth="yes"/>
      <point x="-245" y="-406"/>
      <point x="-349" y="-347"/>
      <point x="-439" y="-322" type="curve"/>
      <point x="-440" y="-322"/>
      <point x="-441" y="-321"/>
      <point x="-441" y="-320" type="curve"/>
      <point x="-441" y="-319" type="line"/>
      <point x="-437" y="-305"/>
      <point x="-426" y="-285"/>
      <point x="-413" y="-279" type="curve"/>
      <point x="-407" y="-275"/>
      <point x="-400" y="-273"/>
      <point x="-392" y="-273" type="curve" smooth="yes"/>
      <point x="-341" y="-273"/>
      <point x="-316" y="-316"/>
      <point x="-252" y="-316" type="curve" smooth="yes"/>
      <point x="-185" y="-316"/>
      <point x="-170" y="-258"/>
      <point x="-147" y="-207" type="curve"/>
      <point x="-164" y="-213"/>
      <point x="-183" y="-214"/>
      <point x="-200" y="-214" type="curve" smooth="yes"/>
      <point x="-239" y="-214"/>
      <point x="-304" y="-150"/>
      <point x="-357" y="-150" type="curve" smooth="yes"/>
      <point x="-421" y="-150"/>
      <point x="-497" y="-304"/>
      <point x="-516" y="-366" type="curve"/>
      <point x="-516" y="-368" type="line"/>
      <point x="-516" y="-371"/>
      <point x="-514" y="-373"/>
      <point x="-511" y="-373" type="curve"/>
      <point x="-432" y="-381"/>
      <point x="-386" y="-426"/>
      <point x="-386" y="-454" type="curve" smooth="yes"/>
      <point x="-386" y="-734" type="line" smooth="yes"/>
      <point x="-386" y="-772"/>
      <point x="-537" y="-791"/>
    </contour>
  </outline>
</glyph>
<glyph name="uni17D217B0" format="2">
  <guideline x="-1033"/>
  <anchor x="-245" y="-1225" name="L"/>
  <anchor x="-245" y="0" name="_L"/>
  <anchor x="-639" y="0" name="_lm"/>
  <anchor x="-639" y="-1225" name="lm"/>
  <outline>
    <contour>
      <point x="-1033" y="-312" type="curve"/>
      <point x="-1033" y="-866" type="line"/>
      <point x="-1012" y="-905"/>
      <point x="-944" y="-915"/>
      <point x="-889" y="-915" type="curve"/>
      <point x="-749" y="-896"/>
      <point x="-684" y="-807"/>
      <point x="-684" y="-745" type="curve" smooth="yes"/>
      <point x="-684" y="-673"/>
      <point x="-765" y="-611"/>
      <point x="-875" y="-603" type="curve"/>
      <point x="-875" y="-336" type="line" smooth="yes"/>
      <point x="-875" y="-306"/>
      <point x="-827" y="-256"/>
      <point x="-806" y="-256" type="curve" smooth="yes"/>
      <point x="-803" y="-256"/>
      <point x="-773" y="-277"/>
      <point x="-746" y="-299" type="curve" smooth="yes"/>
      <point x="-715" y="-324"/>
      <point x="-680" y="-351"/>
      <point x="-639" y="-351" type="curve" smooth="yes"/>
      <point x="-598" y="-351"/>
      <point x="-563" y="-324"/>
      <point x="-532" y="-299" type="curve" smooth="yes"/>
      <point x="-505" y="-277"/>
      <point x="-475" y="-256"/>
      <point x="-471" y="-256" type="curve" smooth="yes"/>
      <point x="-450" y="-256"/>
      <point x="-403" y="-306"/>
      <point x="-403" y="-336" type="curve" smooth="yes"/>
      <point x="-403" y="-803" type="line" smooth="yes"/>
      <point x="-403" y="-844"/>
      <point x="-418" y="-881"/>
      <point x="-470" y="-899" type="curve" smooth="yes"/>
      <point x="-568" y="-932"/>
      <point x="-682" y="-963"/>
      <point x="-754" y="-971" type="curve" smooth="yes"/>
      <point x="-832" y="-980"/>
      <point x="-908" y="-1030"/>
      <point x="-908" y="-1082" type="curve" smooth="yes"/>
      <point x="-908" y="-1155"/>
      <point x="-835" y="-1225"/>
      <point x="-690" y="-1225" type="curve" smooth="yes"/>
      <point x="-636" y="-1225"/>
      <point x="-601" y="-1203"/>
      <point x="-579" y="-1179" type="curve" smooth="yes"/>
      <point x="-565" y="-1164"/>
      <point x="-546" y="-1150"/>
      <point x="-537" y="-1150" type="curve" smooth="yes"/>
      <point x="-529" y="-1150"/>
      <point x="-520" y="-1153"/>
      <point x="-501" y="-1164" type="curve" smooth="yes"/>
      <point x="-479" y="-1176"/>
      <point x="-459" y="-1185"/>
      <point x="-419" y="-1185" type="curve" smooth="yes"/>
      <point x="-275" y="-1185"/>
      <point x="-248" y="-1101"/>
      <point x="-245" y="-994" type="curve"/>
      <point x="-245" y="-980"/>
      <point x="-272" y="-966"/>
      <point x="-314" y="-966" type="curve" smooth="yes"/>
      <point x="-342" y="-966"/>
      <point x="-377" y="-985"/>
      <point x="-380" y="-1012" type="curve" smooth="yes"/>
      <point x="-383" y="-1049"/>
      <point x="-396" y="-1104"/>
      <point x="-425" y="-1104" type="curve" smooth="yes"/>
      <point x="-445" y="-1104"/>
      <point x="-466" y="-1093"/>
      <point x="-488" y="-1082" type="curve" smooth="yes"/>
      <point x="-507" y="-1072"/>
      <point x="-523" y="-1068"/>
      <point x="-544" y="-1068" type="curve" smooth="yes"/>
      <point x="-589" y="-1068"/>
      <point x="-621" y="-1084"/>
      <point x="-644" y="-1107" type="curve"/>
      <point x="-664" y="-1129"/>
      <point x="-688" y="-1143"/>
      <point x="-703" y="-1143" type="curve" smooth="yes"/>
      <point x="-743" y="-1143"/>
      <point x="-765" y="-1111"/>
      <point x="-765" y="-1088" type="curve" smooth="yes"/>
      <point x="-765" y="-1063"/>
      <point x="-743" y="-1052"/>
      <point x="-724" y="-1049" type="curve" smooth="yes"/>
      <point x="-613" y="-1030"/>
      <point x="-446" y="-980"/>
      <point x="-338" y="-943" type="curve" smooth="yes"/>
      <point x="-269" y="-920"/>
      <point x="-245" y="-877"/>
      <point x="-245" y="-803" type="curve" smooth="yes"/>
      <point x="-245" y="-312" type="line" smooth="yes"/>
      <point x="-245" y="-275"/>
      <point x="-368" y="-150"/>
      <point x="-453" y="-150" type="curve" smooth="yes"/>
      <point x="-498" y="-150"/>
      <point x="-535" y="-178"/>
      <point x="-569" y="-207" type="curve" smooth="yes"/>
      <point x="-597" y="-230"/>
      <point x="-630" y="-253"/>
      <point x="-639" y="-253" type="curve" smooth="yes"/>
      <point x="-648" y="-253"/>
      <point x="-681" y="-230"/>
      <point x="-709" y="-207" type="curve" smooth="yes"/>
      <point x="-743" y="-178"/>
      <point x="-780" y="-150"/>
      <point x="-825" y="-150" type="curve" smooth="yes"/>
      <point x="-910" y="-150"/>
      <point x="-1033" y="-275"/>
    </contour>
    <contour>
      <point x="-786" y="-745" type="curve" smooth="yes"/>
      <point x="-786" y="-790"/>
      <point x="-832" y="-815"/>
      <point x="-875" y="-829" type="curve"/>
      <point x="-875" y="-658" type="line"/>
      <point x="-819" y="-670"/>
      <point x="-786" y="-711"/>
    </contour>
  </outline>
</glyph>
<glyph name="uni17DD.ms.high" format="2">
  <outline>
    <contour>
      <point x="-713" y="2263" type="curve" smooth="yes"/>
      <point x="-973" y="2263"/>
      <point x="-1129" y="2135"/>
      <point x="-1196" y="1993" type="curve" smooth="yes"/>
      <point x="-1206" y="1972"/>
      <point x="-1210" y="1954"/>
      <point x="-1210" y="1938" type="curve" smooth="yes"/>
      <point x="-1210" y="1901"/>
      <point x="-1185" y="1880"/>
      <point x="-1156" y="1880" type="curve" smooth="yes"/>
      <point x="-1129" y="1880"/>
      <point x="-1098" y="1897"/>
      <point x="-1077" y="1935" type="curve" smooth="yes"/>
      <point x="-1014" y="2049"/>
      <point x="-863" y="2103"/>
      <point x="-713" y="2103" type="curve" smooth="yes"/>
      <point x="-563" y="2103"/>
      <point x="-411" y="2049"/>
      <point x="-349" y="1935" type="curve" smooth="yes"/>
      <point x="-328" y="1897"/>
      <point x="-297" y="1880"/>
      <point x="-270" y="1880" type="curve" smooth="yes"/>
      <point x="-241" y="1880"/>
      <point x="-216" y="1901"/>
      <point x="-216" y="1938" type="curve" smooth="yes"/>
      <point x="-216" y="1954"/>
      <point x="-220" y="1972"/>
      <point x="-230" y="1993" type="curve" smooth="yes"/>
      <point x="-296" y="2134"/>
      <point x="-453" y="2263"/>
    </contour>
  </outline>
</glyph>
